<svg id="Capa_1" data-name="Capa 1" xmlns="http://www.w3.org/2000/svg" viewBox="0 0 417 159">
    <defs>
        <style>
            .cls-1 {
                fill: #f5989d;
            }
        </style>
    </defs>
    <title>adm</title>
    <path class="cls-1"
        d="M56.71,13.14A9.56,9.56,0,0,1,60.35,9a9.42,9.42,0,0,1,5.29-1.7A9.8,9.8,0,0,1,70.94,9a8.85,8.85,0,0,1,3.64,4.12L128,137.07a9.51,9.51,0,0,1,.88,4,9.8,9.8,0,0,1-9.71,9.72,9.59,9.59,0,0,1-5.35-1.75,9.93,9.93,0,0,1-3.69-4.18l-16.6-38.56-55.36-.77-17,39.43a9.35,9.35,0,0,1-3.59,4.22A9.27,9.27,0,0,1,5.38,148.1a9.36,9.36,0,0,1-2.87-6.85,9.48,9.48,0,0,1,.88-4ZM65.64,41.6,46.51,86.18l38.56.48Z" />
    <path class="cls-1"
        d="M187.72,9.06h1.46q17.1,0,30,6A62.49,62.49,0,0,1,240.8,31.16a70.44,70.44,0,0,1,13.11,22.73,76.8,76.8,0,0,1,4.42,25.68q0,20-9,35.65t-26.52,24.57q-17.52,8.94-43.17,8.94H175.1l-22.15-.2a9.46,9.46,0,0,1-6.74-3,9.57,9.57,0,0,1-2.87-7L144,19.36a9.31,9.31,0,0,1,2.82-6.75,9.39,9.39,0,0,1,6.7-3ZM241.05,79q0-18.06-7.68-29.13T211.81,33.68q-13.89-5.1-32.63-5.1c-2.66,0-5.3,0-7.92.1s-5.26.17-7.91.29l-.59,99.94,12.53.2q19.53,0,34.34-4.71t23.11-15.69Q241.05,97.73,241.05,79Z" />
    <path class="cls-1"
        d="M285.43,148.63a9.78,9.78,0,0,1-9.71-9.71l-.29-120.53a14.79,14.79,0,0,1-.1-1.75A5.78,5.78,0,0,1,276,14a27.22,27.22,0,0,1,1.51-2.63,7.42,7.42,0,0,1,6.7-3.78q7,0,9.61,5.44l52,84.78L393.82,13q2.91-4.86,7.87-4.86A10.72,10.72,0,0,1,409,10.81a8.89,8.89,0,0,1,3.11,7V139.31a9.72,9.72,0,0,1-19.43,0V52.48l-38.17,69.34a11.7,11.7,0,0,1-3.3,3.35,8.16,8.16,0,0,1-4.85,1.61,9.7,9.7,0,0,1-8.65-4.67l-42.83-70,.29,86.73v.1a9.78,9.78,0,0,1-9.71,9.71Z" />
</svg>