<svg id="Capa_1" data-name="Capa 1" xmlns="http://www.w3.org/2000/svg" viewBox="0 0 625 119">
    <defs>
        <style>
            .cls-1 {
                fill: #00d1b2;
            }
        </style>
    </defs>
    <title>disenos</title>
    <path class="cls-1"
        d="M27.42,113.64a25,25,0,0,1-11.8-2.92,24.36,24.36,0,0,1-9.06-8.2,21.49,21.49,0,0,1-3.5-12.21A20.08,20.08,0,0,1,6.59,78.23,32.18,32.18,0,0,1,15.24,70c3.4-2.21,6.69-4.14,9.86-5.82-1.45-1.92-3.08-3.93-4.88-6a33.72,33.72,0,0,1-4.63-6.94,19.15,19.15,0,0,1-1.93-8.71,17.12,17.12,0,0,1,2.45-9,18.46,18.46,0,0,1,6.55-6.53,18,18,0,0,1,18,0,18.26,18.26,0,0,1,6.49,6.46,17.24,17.24,0,0,1,2.41,9A18.43,18.43,0,0,1,46.8,52.64a30.54,30.54,0,0,1-6.88,7.59,61.86,61.86,0,0,1-8,5.4L42,78.51q5,6.46,10,13a45.08,45.08,0,0,0,3.15-8.94,51,51,0,0,0,1.42-10.35,2,2,0,0,1,.67-1.54A2.2,2.2,0,0,1,58.79,70,2.29,2.29,0,0,1,61,72.25,44.17,44.17,0,0,1,59.3,84.78,54.75,54.75,0,0,1,55,95.45l5.82,7.49q2.92,3.77,5.82,7.55a2.23,2.23,0,0,1,.51,1.42,2.22,2.22,0,0,1-4,1.28l-5.3-6.84-5.3-6.85A36.8,36.8,0,0,1,42,109.4,26.4,26.4,0,0,1,27.42,113.64ZM7.56,90.5a16.89,16.89,0,0,0,2.86,9.74,19.73,19.73,0,0,0,7.42,6.56,20.73,20.73,0,0,0,9.58,2.34,22.23,22.23,0,0,0,12.95-4.08,33.33,33.33,0,0,0,9.22-9.29q-5.4-7-10.83-14t-10.83-14q-4.3,2.31-9.06,5.18a29.19,29.19,0,0,0-8,7A16.45,16.45,0,0,0,7.56,90.5Zm37.53-48A13.44,13.44,0,0,0,31.72,29.12,13.25,13.25,0,0,0,22.21,33a12.89,12.89,0,0,0-4.05,9.64A14.87,14.87,0,0,0,20.09,50a38.77,38.77,0,0,0,4.5,6.4q2.57,3,4.56,5.59a69.94,69.94,0,0,0,7.17-4.63A26.28,26.28,0,0,0,42.55,51,14.6,14.6,0,0,0,45.09,42.49Z" />
    <path class="cls-1"
        d="M138,24.94q15.24,0,27,4.79a39.9,39.9,0,0,1,18.44,14.59q6.69,9.8,6.69,24.84,0,14.73-6.56,24.56a40.09,40.09,0,0,1-18.06,14.75q-11.5,4.91-26.42,4.91c-3.25,0-6.5,0-9.73-.06l-9.74-.13a2.25,2.25,0,0,1-1.67-.74,2.39,2.39,0,0,1-.71-1.7l.45-83.3a2.39,2.39,0,0,1,.71-1.7A2.21,2.21,0,0,1,120,25Zm-15.49,4.89L122,108.37l8.36.13q4.17.06,8.48.06a63.75,63.75,0,0,0,24.1-4.24,35.1,35.1,0,0,0,16.39-13q5.92-8.75,5.92-22.18,0-13.75-6.08-22.43a35.59,35.59,0,0,0-16.74-12.82,67.54,67.54,0,0,0-24.62-4.15Z" />
    <path class="cls-1"
        d="M205.33,24.68a2.25,2.25,0,0,1,1.7.71,2.42,2.42,0,0,1,.68,1.74l.06,84.13v.07a2.41,2.41,0,0,1-.67,1.73,2.27,2.27,0,0,1-1.71.71,2.42,2.42,0,0,1-2.44-2.44l-.06-84.2a2.37,2.37,0,0,1,.71-1.71A2.31,2.31,0,0,1,205.33,24.68Z" />
    <path class="cls-1"
        d="M255.85,24.88a31.67,31.67,0,0,1,17.71,5,30.17,30.17,0,0,1,11.28,12.92,2.13,2.13,0,0,1,.19,1A2.29,2.29,0,0,1,282.78,46a2.06,2.06,0,0,1-2-1.35,25.88,25.88,0,0,0-9.61-11.08,27.33,27.33,0,0,0-15.27-4.21A39.28,39.28,0,0,0,246,30.66a33.21,33.21,0,0,0-9.12,3.83,21,21,0,0,0-6.69,6.39,16,16,0,0,0-2.54,9A12.21,12.21,0,0,0,230.27,58a18.48,18.48,0,0,0,6,4.85,31.89,31.89,0,0,0,9.22,2.89c3.28.52,6.65.89,10.13,1.13s6.89.59,10.28,1.06a40,40,0,0,1,9.64,2.57,22,22,0,0,1,8.68,6.43q3.72,4.43,3.73,11.44a21.94,21.94,0,0,1-4.57,14.17A27.91,27.91,0,0,1,271.47,111a42.69,42.69,0,0,1-15.62,2.86,39.76,39.76,0,0,1-20.69-5.27,31.59,31.59,0,0,1-13-14.66,1.93,1.93,0,0,1-.19-.9,2.31,2.31,0,0,1,2.25-2.25,2.07,2.07,0,0,1,2.05,1.35,26.64,26.64,0,0,0,11.28,12.76q7.68,4.47,18.35,4.47a38.28,38.28,0,0,0,13.37-2.32,23.88,23.88,0,0,0,10.25-7,17.57,17.57,0,0,0,4-11.79,12.86,12.86,0,0,0-2.9-8.78,18.12,18.12,0,0,0-6.74-4.91A38.18,38.18,0,0,0,264.11,72q-5-.67-10.25-1c-3.47-.23-6.87-.62-10.19-1.15a33,33,0,0,1-9.41-3,22.86,22.86,0,0,1-7.72-6.33,16.37,16.37,0,0,1-3.4-10.64A20.55,20.55,0,0,1,226,39a24.43,24.43,0,0,1,7.64-7.81,37.42,37.42,0,0,1,10.58-4.69A44,44,0,0,1,255.85,24.88Z" />
    <path class="cls-1"
        d="M304.51,24.56l56.37.06h.06a2.27,2.27,0,0,1,1.71.71,2.58,2.58,0,0,1,0,3.47,2.27,2.27,0,0,1-1.71.71l-.06-.07-54-.06.13,37,48.91.25a2.46,2.46,0,0,1,1.74.68,2.24,2.24,0,0,1,.7,1.7,2.18,2.18,0,0,1-2.5,2.44L307,71l.06,37.22,53.8-.07h.06a2.27,2.27,0,0,1,1.71.71,2.42,2.42,0,0,1,.67,1.74,2.1,2.1,0,0,1-2.38,2.37h-.06L304.7,113a2.42,2.42,0,0,1-1.73-.68,2.21,2.21,0,0,1-.71-1.7L302.07,27a2.39,2.39,0,0,1,2.44-2.44Z" />
    <path class="cls-1"
        d="M376.69,24.56a2.27,2.27,0,0,1,1.93,1l59.58,78.67.07-77.13V27a2.1,2.1,0,0,1,2.37-2.38,2.42,2.42,0,0,1,1.74.68,2.25,2.25,0,0,1,.71,1.7v.06L443,111.39a2.36,2.36,0,0,1-.7,1.74,2.39,2.39,0,0,1-1.74.7,2.26,2.26,0,0,1-1.93-1L379.07,34.2v77.13a2.1,2.1,0,0,1-2.38,2.38A2.4,2.4,0,0,1,375,113a2.23,2.23,0,0,1-.71-1.7V27a2.41,2.41,0,0,1,2.44-2.44ZM431.07,5a2.19,2.19,0,0,1,.64-1.57,2.13,2.13,0,0,1,1.61-.68,2,2,0,0,1,2.12,1.58,11.74,11.74,0,0,1,.45,3.24,12.85,12.85,0,0,1-4,9.48,12.93,12.93,0,0,1-9.45,4,14,14,0,0,1-7.65-2,31.11,31.11,0,0,1-5.71-4.63,32.17,32.17,0,0,0-5.34-4.43,19.2,19.2,0,0,0-2.92-1.64,8.38,8.38,0,0,0-3.44-.67A8.82,8.82,0,0,0,391,10.26a8.72,8.72,0,0,0-2.7,6.45,6.15,6.15,0,0,0,.06.87,4.94,4.94,0,0,1,.07.87,2.33,2.33,0,0,1-2.25,2.25,1.84,1.84,0,0,1-1.93-1.25,8.26,8.26,0,0,1-.45-2.8,13,13,0,0,1,4-9.54,13,13,0,0,1,9.54-4,14,14,0,0,1,7.72,2,34.48,34.48,0,0,1,5.75,4.66,34.88,34.88,0,0,0,5.36,4.5,19.64,19.64,0,0,0,2.93,1.58,8.57,8.57,0,0,0,3.31.61,8.7,8.7,0,0,0,6.36-2.61,8.61,8.61,0,0,0,2.64-6.39,5.16,5.16,0,0,0-.16-1.25A4.84,4.84,0,0,1,431.07,5Z" />
    <path class="cls-1"
        d="M455.88,69.16A43.54,43.54,0,0,1,459.28,52a45.25,45.25,0,0,1,9.42-14.17,43.94,43.94,0,0,1,13.95-9.61,43.11,43.11,0,0,1,34,.06,44.57,44.57,0,0,1,14,9.71,45.83,45.83,0,0,1,9.42,14.17,44,44,0,0,1,0,34,45.83,45.83,0,0,1-9.48,14.21,45,45,0,0,1-14,9.71,42.79,42.79,0,0,1-33.9.06,44.5,44.5,0,0,1-13.95-9.61,45,45,0,0,1-9.45-14.2A43.77,43.77,0,0,1,455.88,69.16Zm43.77-39.59a36.93,36.93,0,0,0-15.14,3.12,39.91,39.91,0,0,0-12.4,8.55,39.5,39.5,0,0,0-8.39,12.59,40.08,40.08,0,0,0,0,30.6,40.86,40.86,0,0,0,8.42,12.66,39.7,39.7,0,0,0,12.4,8.61,37.74,37.74,0,0,0,30.12,0A40,40,0,0,0,527.16,97a41,41,0,0,0,8.45-12.69,38.14,38.14,0,0,0,3-15.14,38.61,38.61,0,0,0-3-15.17,40.58,40.58,0,0,0-8.39-12.63,39.91,39.91,0,0,0-12.43-8.64A36.87,36.87,0,0,0,499.65,29.57Z" />
    <path class="cls-1"
        d="M588.93,24.88a31.66,31.66,0,0,1,17.7,5,30.1,30.1,0,0,1,11.28,12.92,2.13,2.13,0,0,1,.2,1,2.17,2.17,0,0,1-.68,1.58,2.14,2.14,0,0,1-1.57.67,2.07,2.07,0,0,1-2.06-1.35,25.82,25.82,0,0,0-9.61-11.08,27.27,27.27,0,0,0-15.26-4.21,39.22,39.22,0,0,0-9.87,1.28,33.27,33.27,0,0,0-9.13,3.83,21,21,0,0,0-6.68,6.39,16,16,0,0,0-2.54,9A12.26,12.26,0,0,0,563.34,58a18.48,18.48,0,0,0,6,4.85,32,32,0,0,0,9.23,2.89c3.27.52,6.65.89,10.12,1.13s6.9.59,10.28,1.06a40.13,40.13,0,0,1,9.65,2.57,22,22,0,0,1,8.67,6.43Q621,81.31,621,88.32q0,8.48-4.56,14.17A28,28,0,0,1,604.55,111a42.77,42.77,0,0,1-15.62,2.86,39.77,39.77,0,0,1-20.7-5.27A31.7,31.7,0,0,1,555.18,94a1.93,1.93,0,0,1-.19-.9,2.33,2.33,0,0,1,2.25-2.25,2.05,2.05,0,0,1,2,1.35,26.61,26.61,0,0,0,11.29,12.76q7.68,4.47,18.35,4.47a38.32,38.32,0,0,0,13.37-2.32,24,24,0,0,0,10.25-7,17.61,17.61,0,0,0,4-11.79,12.86,12.86,0,0,0-2.89-8.78,18.24,18.24,0,0,0-6.75-4.91A38.11,38.11,0,0,0,597.19,72c-3.37-.45-6.78-.79-10.26-1s-6.86-.62-10.18-1.15a33.21,33.21,0,0,1-9.42-3,22.93,22.93,0,0,1-7.71-6.33,16.38,16.38,0,0,1-3.41-10.64A20.55,20.55,0,0,1,559.07,39a24.57,24.57,0,0,1,7.65-7.81,37.36,37.36,0,0,1,10.57-4.69A44.16,44.16,0,0,1,588.93,24.88Z" />
</svg>