<svg id="Capa_1" data-name="Capa 1" xmlns="http://www.w3.org/2000/svg" viewBox="0 0 570 159">
    <defs>
        <style>
            .cls-1 {
                fill: #00d1b2;
            }
        </style>
    </defs>
    <title>fiestas</title>
    <path class="cls-1"
        d="M106.6,90.64c.57,0,.86,1.56.86,4.67a38.55,38.55,0,0,0,.35,6.4L48.47,109l3.12,38.4-14-.69a212,212,0,0,0-3.46-35.63l-22.49,8.65q-2.25,0-3.8-2.6A15.86,15.86,0,0,1,5.05,109l26.3-9.34q-3.47-29.76-3.47-48.35t3.12-29q3.12-10.38,9.08-13.93A24.53,24.53,0,0,1,52.8,4.84,35.39,35.39,0,0,1,66.55,7.78,71.25,71.25,0,0,1,80,15.22,52.6,52.6,0,0,1,90.85,25.34q4.5,5.63,4.5,11a14.36,14.36,0,0,1-.86,5.88A82.7,82.7,0,0,0,77.71,24.9q-11.77-9-22.15-9-9.86,0-13.14,14-1.56,7.26-1.56,20.5t.69,24.22A93.17,93.17,0,0,0,45.7,96.7a171.5,171.5,0,0,0,24-1.91Q95.35,90.82,106.6,90.64Z" />
    <path class="cls-1"
        d="M112,43.59q0-6.06,7.09-6.06a12.9,12.9,0,0,1,7.62,2.08,14.35,14.35,0,0,1,.51,3.72,5.62,5.62,0,0,1-1.38,3.54,5,5,0,0,1-4.15,1.73,13,13,0,0,1-5.54-1.29A9.1,9.1,0,0,1,112,43.59Zm16.09,23.52q2.25,32.36,3.81,74.91c-.7,3.58-3.46,5.36-8.31,5.36a10.56,10.56,0,0,1-3.89-.77,4,4,0,0,1-2.51-2.17V67.11Z" />
    <path class="cls-1"
        d="M174.58,136.31q15.22,0,45.85-13.84a4.08,4.08,0,0,1,3.11,1.3,4.31,4.31,0,0,1,1.21,3q-6.92,11.76-26.46,18.34t-36.51,2.24q-19.2-5-23.35-21.62-.35-3.29-.35-8.82t2.86-14.62a49.3,49.3,0,0,1,9.77-17.21A51.31,51.31,0,0,1,167,72.31a43.83,43.83,0,0,1,19.9-4.68q10,0,22.49,6.92A33,33,0,0,1,218.7,82a13.24,13.24,0,0,1,3.46,8.48,17.79,17.79,0,0,1-.17,2.42q-.36,10.56-10.21,13.32a37.32,37.32,0,0,1-10,1.21l-24.91-1q-12.45,0-19,5.36a15.86,15.86,0,0,0-5.36,8.82Q156.76,136.32,174.58,136.31Zm30.89-53.45a26.85,26.85,0,0,0-8.05-4,25.59,25.59,0,0,0-6.92-1.21,36.84,36.84,0,0,0-9,1.81,79.51,79.51,0,0,0-11.08,4.07q-11.93,5.53-11.93,11.59,13.83,1.22,20.76,1.21,19.2,0,25.94-3.28,4.16-1.74,4.16-4.33Q209.36,85.62,205.47,82.86Z" />
    <path class="cls-1"
        d="M294.3,103.79q19,0,19,9.69,0,7.26-10.56,17-15.74,14.37-42.38,23c-.81,0-1.7-.81-2.68-2.42l-2.25-3.72a10.83,10.83,0,0,0-1.12-1.64q19.89-6.58,32.69-15.92,8.66-6.23,8.65-10.21t-10.21-4q-10.2,0-29.92,4.85A23.59,23.59,0,0,1,240,114q-5.72-5.37-5.71-10.81a17.54,17.54,0,0,1,3.11-10,37.56,37.56,0,0,1,8.31-8.56,67.15,67.15,0,0,1,12.11-7.27,80.27,80.27,0,0,1,35.11-8.13,51.18,51.18,0,0,1,10.38,1q4.15,0,4.85,3.63a71.92,71.92,0,0,1,.69,11.94,54.59,54.59,0,0,0-23-4.67q-15.92,0-26.29,6.4-10.74,6.23-11.08,16.26,0,4.84,7.1,4.84l12.62-1.38Q284.44,103.79,294.3,103.79Z" />
    <path class="cls-1"
        d="M350.18,131.81l.34-27.67a45.25,45.25,0,0,0-1.21-11.25H322.5L322.15,81h26V36.32a8.2,8.2,0,0,1,2.08-3.11c1.61-1.62,3-2.42,4.06-2.42a10.53,10.53,0,0,1,2.86.34,5.49,5.49,0,0,1,2.59,2.42Q362.45,45,362.46,68q0,5.72.52,11.24a91.39,91.39,0,0,1,11.07-.69h9a49.18,49.18,0,0,0,6.05-.34l-.52,12.45L363.32,90l.87,59.68a13.75,13.75,0,0,1-5.36,1.39Q350.18,151,350.18,131.81Z" />
    <path class="cls-1"
        d="M463.66,119.71q-13,20.42-34.6,25.25a44.6,44.6,0,0,1-9.08,1q-4.07,0-6.75-.09a33.94,33.94,0,0,1-6-.77,21,21,0,0,1-6.05-2.25q-6.4-3.63-6.4-10.21a32.52,32.52,0,0,1-.69-7,41.36,41.36,0,0,1,1.73-10.29,53.29,53.29,0,0,1,6.31-13.84,67.85,67.85,0,0,1,11.16-13.67q13.67-13.14,29.58-17a39.93,39.93,0,0,1,8.57-1,43.45,43.45,0,0,1,7,.52q10,0,13.5,13.67,2.23,8.66,2.68,24.13t.86,23.88a80.56,80.56,0,0,0,2.16,15.3h-10.2q-.69-4.66-1-8.3t-.69-6.75A125.24,125.24,0,0,0,463.66,119.71ZM463,92.89q0-10-9.86-10a16.53,16.53,0,0,0-2.42-.18q-12.63,0-26.65,12.11a61,61,0,0,0-11.24,12.46q-6.92,9.85-6.92,17.65,0,10.2,11.77,12.11,15.56-.34,29.75-14.19a60.11,60.11,0,0,0,10-13.15Q463,100.16,463,92.89Z" />
    <path class="cls-1"
        d="M545,103.79q19,0,19,9.69,0,7.26-10.55,17-15.75,14.37-42.39,23c-.81,0-1.7-.81-2.68-2.42l-2.25-3.72a10.11,10.11,0,0,0-1.12-1.64q19.89-6.58,32.7-15.92,8.64-6.23,8.64-10.21t-10.2-4q-10.21,0-29.93,4.85a23.59,23.59,0,0,1-15.57-6.4q-5.72-5.37-5.71-10.81a17.47,17.47,0,0,1,3.12-10,37.3,37.3,0,0,1,8.3-8.56,67.5,67.5,0,0,1,12.11-7.27,80.31,80.31,0,0,1,35.12-8.13,51.33,51.33,0,0,1,10.38,1c2.76,0,4.38,1.21,4.84,3.63a71.92,71.92,0,0,1,.69,11.94,54.56,54.56,0,0,0-23-4.67q-15.91,0-26.29,6.4-10.72,6.23-11.07,16.26,0,4.84,7.09,4.84l12.63-1.38Q535.11,103.79,545,103.79Z" />
</svg>