<svg id="Capa_1" data-name="Capa 1" xmlns="http://www.w3.org/2000/svg" xmlns:xlink="http://www.w3.org/1999/xlink"
    viewBox="0 0 1055 258">
    <defs>
        <style>
            .cls-1,
            .cls-5 {
                fill: none;
            }

            .cls-2 {
                fill: #00d1b2;
            }

            .cls-3 {
                fill: #f5989d;
            }

            .cls-4 {
                clip-path: url(#clip-path);
            }

            .cls-5 {
                stroke: #f5989d;
                stroke-miterlimit: 10;
                stroke-width: 12.92px;
            }
        </style>
        <clipPath id="clip-path">
            <rect class="cls-1" x="3" y="9.48" width="183.02" height="241.52" rx="12.55" />
        </clipPath>
    </defs>
    <title>logo_adm</title>
    <path class="cls-2"
        d="M588.6,135.64c.57,0,.86,1.56.86,4.67a38.55,38.55,0,0,0,.35,6.4L530.47,154l3.12,38.4-14-.69a212,212,0,0,0-3.46-35.63l-22.49,8.65q-2.25,0-3.8-2.6a15.86,15.86,0,0,1-2.77-8.13l26.3-9.34q-3.47-29.76-3.47-48.35t3.12-29q3.12-10.38,9.08-13.93a24.53,24.53,0,0,1,12.72-3.54,35.39,35.39,0,0,1,13.75,2.94A71.25,71.25,0,0,1,562,60.22a52.6,52.6,0,0,1,10.89,10.12q4.5,5.63,4.5,11a14.36,14.36,0,0,1-.86,5.88,82.7,82.7,0,0,0-16.78-17.3q-11.78-9-22.15-9-9.85,0-13.14,14-1.56,7.26-1.56,20.5t.69,24.22a93.17,93.17,0,0,0,4.15,22.06,171.5,171.5,0,0,0,24-1.91Q577.36,135.82,588.6,135.64Z" />
    <path class="cls-2"
        d="M594,88.59q0-6.06,7.09-6.06a12.9,12.9,0,0,1,7.62,2.08,14.35,14.35,0,0,1,.51,3.72,5.62,5.62,0,0,1-1.38,3.54,5,5,0,0,1-4.15,1.73,13,13,0,0,1-5.54-1.29A9.1,9.1,0,0,1,594,88.59Zm16.09,23.52q2.25,32.36,3.81,74.91c-.7,3.58-3.46,5.36-8.31,5.36a10.56,10.56,0,0,1-3.89-.77,4,4,0,0,1-2.51-2.17V112.11Z" />
    <path class="cls-2"
        d="M656.58,181.31q15.23,0,45.85-13.84a4.08,4.08,0,0,1,3.11,1.3,4.31,4.31,0,0,1,1.21,3q-6.91,11.76-26.46,18.34t-36.51,2.24q-19.2-5-23.35-21.62-.34-3.28-.35-8.82t2.86-14.62a49.3,49.3,0,0,1,9.77-17.21A51.31,51.31,0,0,1,649,117.31a43.83,43.83,0,0,1,19.9-4.68q10,0,22.49,6.92A33,33,0,0,1,700.7,127a13.24,13.24,0,0,1,3.46,8.48,17.79,17.79,0,0,1-.17,2.42q-.36,10.56-10.21,13.32a37.32,37.32,0,0,1-10,1.21l-24.91-1q-12.45,0-19,5.36a15.86,15.86,0,0,0-5.36,8.82Q638.76,181.32,656.58,181.31Zm30.89-53.45a26.85,26.85,0,0,0-8.05-4,25.59,25.59,0,0,0-6.92-1.21,36.84,36.84,0,0,0-9,1.81,79.51,79.51,0,0,0-11.08,4.07q-11.92,5.53-11.93,11.59,13.83,1.22,20.76,1.21,19.2,0,25.94-3.28,4.15-1.74,4.16-4.33Q691.36,130.62,687.47,127.86Z" />
    <path class="cls-2"
        d="M776.3,148.79q19,0,19,9.69,0,7.26-10.56,17-15.74,14.37-42.38,23c-.81,0-1.7-.81-2.68-2.42l-2.25-3.72a10.83,10.83,0,0,0-1.12-1.64q19.89-6.58,32.69-15.92,8.65-6.23,8.65-10.21t-10.21-4q-10.2,0-29.92,4.85A23.59,23.59,0,0,1,722,159q-5.72-5.37-5.71-10.81a17.54,17.54,0,0,1,3.11-10,37.56,37.56,0,0,1,8.31-8.56,67.15,67.15,0,0,1,12.11-7.27,80.27,80.27,0,0,1,35.11-8.13,51.18,51.18,0,0,1,10.38,1q4.15,0,4.85,3.63a71.92,71.92,0,0,1,.69,11.94,54.59,54.59,0,0,0-23-4.67q-15.92,0-26.29,6.4-10.74,6.22-11.08,16.26,0,4.85,7.1,4.84l12.62-1.38Q766.45,148.79,776.3,148.79Z" />
    <path class="cls-2"
        d="M832.18,176.81l.34-27.67a45.25,45.25,0,0,0-1.21-11.25H804.5L804.15,126h26V81.32a8.2,8.2,0,0,1,2.08-3.11c1.61-1.62,3-2.42,4.06-2.42a10.53,10.53,0,0,1,2.86.34,5.49,5.49,0,0,1,2.59,2.42Q844.45,90,844.46,113q0,5.72.52,11.24a91.39,91.39,0,0,1,11.07-.69h9a49.18,49.18,0,0,0,6.05-.34l-.52,12.45L845.32,135l.87,59.68a13.75,13.75,0,0,1-5.36,1.39Q832.18,196,832.18,176.81Z" />
    <path class="cls-2"
        d="M945.66,164.71q-13,20.41-34.6,25.25a44.6,44.6,0,0,1-9.08,1q-4.07,0-6.75-.09a33.94,33.94,0,0,1-6-.77,21,21,0,0,1-6-2.25q-6.4-3.63-6.4-10.21a32.52,32.52,0,0,1-.69-7,41.36,41.36,0,0,1,1.73-10.29,53.29,53.29,0,0,1,6.31-13.84,67.85,67.85,0,0,1,11.16-13.67q13.66-13.14,29.58-17a39.93,39.93,0,0,1,8.57-1,43.45,43.45,0,0,1,7,.52q10,0,13.5,13.67,2.24,8.66,2.68,24.13t.86,23.88a80.56,80.56,0,0,0,2.16,15.3h-10.2q-.69-4.66-1-8.3t-.69-6.75A125.24,125.24,0,0,0,945.66,164.71ZM945,137.89q0-10-9.86-10a16.53,16.53,0,0,0-2.42-.18q-12.63,0-26.65,12.11a61,61,0,0,0-11.24,12.46q-6.91,9.85-6.92,17.65,0,10.2,11.77,12.11,15.55-.34,29.75-14.19a60.11,60.11,0,0,0,10-13.15Q945,145.16,945,137.89Z" />
    <path class="cls-2"
        d="M1027,148.79q19,0,19,9.69,0,7.26-10.55,17-15.75,14.37-42.39,23c-.81,0-1.7-.81-2.68-2.42l-2.25-3.72a10.11,10.11,0,0,0-1.12-1.64q19.89-6.58,32.7-15.92,8.64-6.23,8.64-10.21t-10.2-4q-10.21,0-29.93,4.85a23.59,23.59,0,0,1-15.57-6.4q-5.71-5.37-5.71-10.81a17.47,17.47,0,0,1,3.12-10,37.3,37.3,0,0,1,8.3-8.56,67.5,67.5,0,0,1,12.11-7.27,80.31,80.31,0,0,1,35.12-8.13,51.33,51.33,0,0,1,10.38,1c2.76,0,4.38,1.21,4.84,3.63a71.92,71.92,0,0,1,.69,11.94,54.56,54.56,0,0,0-23-4.67q-15.91,0-26.29,6.4-10.73,6.22-11.07,16.26,0,4.85,7.09,4.84l12.63-1.38Q1017.11,148.79,1027,148.79Z" />
    <path class="cls-3"
        d="M116.71,58.14A9.56,9.56,0,0,1,120.35,54a9.42,9.42,0,0,1,5.29-1.7,9.8,9.8,0,0,1,5.3,1.7,8.85,8.85,0,0,1,3.64,4.12L188,182.07a9.51,9.51,0,0,1,.88,4,9.8,9.8,0,0,1-9.71,9.72,9.59,9.59,0,0,1-5.35-1.75,9.93,9.93,0,0,1-3.69-4.18l-16.6-38.56-55.36-.77-17,39.43a9.7,9.7,0,0,1-18.65-3.69,9.48,9.48,0,0,1,.88-4Zm8.93,28.46-19.13,44.58,38.56.48Z" />
    <path class="cls-3"
        d="M247.72,54.06h1.46q17.1,0,30,6A62.49,62.49,0,0,1,300.8,76.16a70.44,70.44,0,0,1,13.11,22.73,76.8,76.8,0,0,1,4.42,25.68q0,20-9,35.65t-26.52,24.57q-17.52,8.94-43.17,8.94H235.1l-22.15-.2a9.46,9.46,0,0,1-6.74-3,9.57,9.57,0,0,1-2.87-7L204,64.36a9.88,9.88,0,0,1,9.52-9.71ZM301.05,124q0-18.06-7.68-29.13T271.81,78.68q-13.89-5.1-32.63-5.1c-2.66,0-5.3,0-7.92.1s-5.26.17-7.91.29l-.59,99.94,12.53.2q19.53,0,34.34-4.71t23.11-15.69Q301,142.73,301.05,124Z" />
    <path class="cls-3"
        d="M345.43,193.63a9.78,9.78,0,0,1-9.71-9.71l-.29-120.53a14.79,14.79,0,0,1-.1-1.75A5.78,5.78,0,0,1,336,59a27.22,27.22,0,0,1,1.51-2.63,7.42,7.42,0,0,1,6.7-3.78q7,0,9.61,5.44l52,84.78L453.82,58q2.91-4.86,7.87-4.86A10.72,10.72,0,0,1,469,55.81a8.89,8.89,0,0,1,3.11,7V184.31a9.72,9.72,0,0,1-19.43,0V97.48l-38.17,69.34a11.7,11.7,0,0,1-3.3,3.35,8.16,8.16,0,0,1-4.85,1.61,9.7,9.7,0,0,1-8.65-4.67l-42.83-70,.29,86.73v.1a9.78,9.78,0,0,1-9.71,9.71Z" />
    <g class="cls-4">
        <circle class="cls-5" cx="123.97" cy="131.17" r="114.08" />
    </g>
</svg>