<svg id="Capa_1" data-name="Capa 1" xmlns="http://www.w3.org/2000/svg" xmlns:xlink="http://www.w3.org/1999/xlink" viewBox="0 0 1920 596"><defs><style>.cls-1,.cls-8{fill:none;}.cls-2{clip-path:url(#clip-path);}.cls-3{fill:#f9d4da;}.cls-4{fill:#6dd4d9;}.cls-5{clip-path:url(#clip-path-2);}.cls-6{fill:#fff;}.cls-7{fill:#2eaeb8;}.cls-8{stroke:#7cb0d6;stroke-miterlimit:10;stroke-width:0.51px;}.cls-9{fill:#bbb;}.cls-10{fill:#7dcbd3;}.cls-11{fill:#90d8e0;}.cls-12{fill:#e6e9e8;}.cls-13{fill:#f4797a;}.cls-14{fill:#ff9ba0;}.cls-15{fill:#e1f8fe;}.cls-16{fill:#de666c;}.cls-17{clip-path:url(#clip-path-3);}.cls-18{fill:#df6065;}.cls-19{fill:#fe8699;}.cls-20{fill:#573b24;}</style><clipPath id="clip-path"><rect class="cls-1" y="24" width="1920" height="540"/></clipPath><clipPath id="clip-path-2"><path class="cls-1" d="M639.58,146c-8.15,41.49-61.44,56.82-61.44,56.82h0a57.76,57.76,0,0,1,22.09,15.73h0c85.11-26.34,54.74-79.3,80-129.57s98.46-46.69,98.46-46.69l-3-24.58C647.31,17.39,647.74,104.55,639.58,146Z"/></clipPath><clipPath id="clip-path-3"><path class="cls-1" d="M1790.06,326.36c-.5-10.1-1.68-28.53-3.67-29.49-5.32-2.57-48.53-1-50.24-.17-1.26.61.81,21.53,2,32.34A492.32,492.32,0,0,1,1790.06,326.36Z"/></clipPath></defs><title>parallax</title><g class="cls-2"><path class="cls-3" d="M555.61,201.61C524,205.05,501.34,231.89,505,261.56s32.26,50.94,63.87,47.5,54.27-30.27,50.61-59.95S587.23,198.18,555.61,201.61ZM565.78,284c-16.88,1.84-32.16-9.52-34.11-25.37s10.14-30.19,27-32,32.16,9.52,34.12,25.37S582.67,282.2,565.78,284Z"/><path class="cls-3" d="M646.44,148.83C638.28,190.32,585,205.66,585,205.66h0a57.59,57.59,0,0,1,22.08,15.72h0c85.11-26.34,54.75-79.3,80-129.57s98.46-46.69,98.46-46.69l-3-24.58C654.16,20.19,654.59,107.34,646.44,148.83Z"/><path class="cls-4" d="M548.76,198.82c-31.61,3.44-54.27,30.27-50.61,59.95S530.4,309.7,562,306.27s54.27-30.28,50.61-59.95S580.37,195.38,548.76,198.82Zm10.17,82.42c-16.89,1.84-32.16-9.52-34.12-25.37s10.15-30.19,27-32S584,233.37,586,249.22,575.82,279.41,558.93,281.24Z"/><path class="cls-4" d="M639.58,146c-8.15,41.49-61.44,56.82-61.44,56.82h0a57.76,57.76,0,0,1,22.09,15.73h0c85.11-26.34,54.74-79.3,80-129.57s98.46-46.69,98.46-46.69l-3-24.58C647.31,17.39,647.74,104.55,639.58,146Z"/><g class="cls-5"><path class="cls-6" d="M616.1,192.77c.71,5.72-3.66,10.89-9.76,11.56s-11.61-3.44-12.31-9.16,3.66-10.9,9.76-11.56S615.39,187.05,616.1,192.77Z"/><ellipse class="cls-6" cx="641.33" cy="187.81" rx="11.26" ry="10.57"/><path class="cls-6" d="M666.48,133c.84,6.78-4.35,12.92-11.58,13.71s-13.77-4.08-14.61-10.87,4.35-12.93,11.58-13.71S665.64,126.18,666.48,133Z"/><path class="cls-6" d="M668.86,97.42a8.14,8.14,0,0,1-7.5,8.88,8.43,8.43,0,0,1-9.46-7,8.15,8.15,0,0,1,7.5-8.88A8.44,8.44,0,0,1,668.86,97.42Z"/><path class="cls-6" d="M703,51.54c.85,6.88-4.41,13.11-11.75,13.9s-14-4.13-14.81-11,4.4-13.11,11.74-13.9S702.17,44.65,703,51.54Z"/><path class="cls-6" d="M725.88,29.66a4.73,4.73,0,0,1-4.35,5.15,4.89,4.89,0,0,1-5.48-4.08,4.73,4.73,0,0,1,4.35-5.15A4.89,4.89,0,0,1,725.88,29.66Z"/><path class="cls-6" d="M774.46,41.33c.83,6.69-4.28,12.74-11.41,13.52s-13.58-4-14.41-10.71,4.29-12.75,11.42-13.52S773.63,34.64,774.46,41.33Z"/></g><path class="cls-7" d="M551.85,223.85a32.84,32.84,0,0,0-5.76,1.16c14.42,1,26.51,11.5,28.23,25.48s-7.49,26.76-21.28,30.85a32.29,32.29,0,0,0,5.89-.1c16.89-1.83,29-16.17,27-32S568.73,222,551.85,223.85Z"/><ellipse class="cls-8" cx="555.39" cy="252.54" rx="49.44" ry="46.41"/><ellipse class="cls-8" cx="555.39" cy="252.54" rx="44.68" ry="41.94"/><ellipse class="cls-8" cx="555.39" cy="252.54" rx="39.87" ry="37.42"/><path class="cls-7" d="M584.26,205.76a57.14,57.14,0,0,1,16,12.83c19.4-6,32.79-13.4,42.21-21.82C617,206.52,597.27,207.29,584.26,205.76Z"/><path class="cls-3" d="M1535.42,275.06s-149.24-114.61-143.19-127.53,154.26,114.36,154.26,114.36S1543.76,267,1535.42,275.06Z"/><path class="cls-3" d="M1632.66,302.57c-11.38-10.08-86.17-40.68-86.17-40.68a170.43,170.43,0,0,1-11.07,13.17c-5.72,6,1.55,8.53,1.55,8.53s5.19,2.32,9.11,9.94,4.57,15,21.73,36.33,42.06,21,59.81,9.82S1644,312.66,1632.66,302.57Zm-6,14.13c4.49,11.32-22.14,29.94-43.08,14.69s-18.64-27.48-18.64-27.48-2.31-13.84,16.94-12.85S1622.14,305.37,1626.64,316.7Z"/><path class="cls-3" d="M1594.16,230.75c-33.89.55-39.28,7.33-45.35,5.59s-9.32-6.14-10.59-.83c0,0,10.25,8,8.27,26.38,0,0-1.4,2.83,7,6.46,0,0,53.18,23.12,79.21,34.22s42.95-2.38,44.09-23.09S1628.05,230.21,1594.16,230.75Zm58.62,60.31c-12.76,9.15-72.6-20.62-77.83-29.43s2.58-13.5,2.58-13.5c4.36-7,34.32-8.16,53.67,4.47S1665.53,281.92,1652.78,291.06Z"/><path class="cls-3" d="M1546.49,261.89s-186.22-65-180.53-76,172.26,49.64,172.26,49.64S1548.47,243.49,1546.49,261.89Z"/><path class="cls-9" d="M1523.49,272.38S1374.25,157.77,1380.3,144.85s154.27,114.37,154.27,114.37S1531.83,264.31,1523.49,272.38Z"/><path class="cls-10" d="M1620.74,299.9c-11.39-10.09-86.17-40.68-86.17-40.68a168,168,0,0,1-11.08,13.16c-5.72,6,1.56,8.54,1.56,8.54s5.19,2.31,9.1,9.94,4.57,14.94,21.73,36.33,42.07,21,59.82,9.82S1632.12,310,1620.74,299.9Zm-6,14.12c4.49,11.33-22.13,29.94-43.08,14.69S1553,301.23,1553,301.23s-2.3-13.84,17-12.85S1610.22,302.69,1614.71,314Z"/><path class="cls-11" d="M1582.24,228.08c-33.89.54-39.29,7.32-45.35,5.58s-9.33-6.13-10.6-.82c0,0,10.26,8,8.28,26.38,0,0-1.4,2.82,7,6.45,0,0,53.18,23.12,79.22,34.23s42.94-2.39,44.08-23.09S1616.13,227.53,1582.24,228.08Zm58.61,60.31c-12.75,9.14-72.59-20.62-77.82-29.43s2.58-13.5,2.58-13.5c4.35-7,34.32-8.16,53.67,4.46S1653.61,279.24,1640.85,288.39Z"/><path class="cls-12" d="M1534.57,259.22s-186.23-65-180.53-76,172.25,49.64,172.25,49.64S1536.55,240.81,1534.57,259.22Z"/><path class="cls-6" d="M1646.8,265.74l.66.6.32.31-.29-.29c.2.07.46.5.59.65l.43.51c.32.4.62.82.91,1.24.16.24.32.49.47.74s.41.88.23.39.15.32.2.41.21.46.31.7a14.23,14.23,0,0,1,.53,1.42c.08.24.16.48.22.72,0,.08.24.94.13.45s.06.37.08.45c.05.29.09.57.12.86a3.28,3.28,0,0,0,3.53,2.82,3.2,3.2,0,0,0,3-3.31A21.36,21.36,0,0,0,1651,261a3.47,3.47,0,0,0-4.63.4,3,3,0,0,0,.43,4.34Z"/><path class="cls-6" d="M1657.12,286.44c3.46-2.27-.28-7.33-3.75-5.06s.28,7.32,3.75,5.06Z"/><path class="cls-6" d="M1549.16,243.41l4.85-1.19a2.5,2.5,0,0,0,1.11-.66,2.19,2.19,0,0,0,.78-.95,3,3,0,0,0,.12-2.32,3.24,3.24,0,0,0-1.72-1.77l-.8-.24a3.51,3.51,0,0,0-1.67.13L1547,237.6a2.5,2.5,0,0,0-1.11.66,2.31,2.31,0,0,0-.78,1,3,3,0,0,0-.12,2.32,3.18,3.18,0,0,0,1.72,1.77l.8.24a3.51,3.51,0,0,0,1.67-.13Z"/><path class="cls-3" d="M1714.3,350.19s14.54,193.53,23.15,210,86.8,17.51,117.74,7.07c19.75-4.36,20.37-13.92,16-55.45s-17.07-167.52-28.86-176.66c-15.57-12.08-88.5-5.2-106.47-2.43C1712.73,336.32,1714.3,350.19,1714.3,350.19Z"/><path class="cls-3" d="M1802.44,328.3c-.5-10.11-1.68-28.53-3.67-29.49-5.33-2.58-48.53-1-50.24-.17-1.27.6.8,21.53,2,32.33A490,490,0,0,1,1802.44,328.3Z"/><path class="cls-3" d="M1791.77,297.73c-3.16-12.62-13.62-51.84-21.62-52.37-8.21-.54-12.81,41-13.94,52.61C1765.85,297.47,1782.22,297.11,1791.77,297.73Z"/><path class="cls-6" d="M1701.92,348.26s14.54,193.53,23.16,210,86.79,17.51,117.73,7.07c19.76-4.37,20.38-13.92,16-55.46S1841.78,342.39,1830,333.24c-15.58-12.08-88.5-5.19-106.48-2.42C1700.36,334.39,1701.92,348.26,1701.92,348.26Z"/><path class="cls-13" d="M1790.06,326.36c-.5-10.1-1.68-28.53-3.67-29.49-5.32-2.57-48.53-1-50.24-.17-1.26.61.81,21.53,2,32.34A492.32,492.32,0,0,1,1790.06,326.36Z"/><path class="cls-14" d="M1779.4,295.8c-3.16-12.62-13.62-51.85-21.63-52.37-8.21-.54-12.81,41-13.94,52.6C1753.48,295.53,1769.85,295.17,1779.4,295.8Z"/><path class="cls-15" d="M1858.85,509.9c-4.33-41.53-17.07-167.51-28.85-176.66-3.7-2.87-10.66-4.66-19.32-5.69,11.42,57.45,31,212.86-86.49,228.47a14.73,14.73,0,0,0,.89,2.27c8.61,16.51,86.79,17.51,117.73,7.07C1862.57,561,1863.19,551.44,1858.85,509.9Z"/><path class="cls-13" d="M1726.15,400.45l9.28,86.73a5.91,5.91,0,0,0,6.13,5.13l86.88-3.57a5.18,5.18,0,0,0,5.08-5.82l-11.34-88.09a5.93,5.93,0,0,0-6.22-5l-84.81,4.94A5.17,5.17,0,0,0,1726.15,400.45Z"/><path class="cls-16" d="M1833.52,482.92l-11.34-88.09a5.93,5.93,0,0,0-6.22-5l-2.61.16-76.14,100.69a6,6,0,0,0,4.35,1.65l86.88-3.57A5.18,5.18,0,0,0,1833.52,482.92Z"/><g class="cls-17"><path class="cls-18" d="M1740,292.16a209.56,209.56,0,0,0,3.7,36.45c.62,3.27,6,3,5.34-.27a211.52,211.52,0,0,1-3.7-36.45c0-3.32-5.39-3-5.34.27Z"/><path class="cls-18" d="M1750.36,291a144.17,144.17,0,0,0,5.29,39.64,2.87,2.87,0,0,0,3.46,1.68,2.48,2.48,0,0,0,1.57-3.24,140.09,140.09,0,0,1-5-38.34c0-1.39-1.61-2.52-2.94-2.45a2.52,2.52,0,0,0-2.4,2.71Z"/><path class="cls-18" d="M1765.26,289.74q.91,20.24,3.45,40.43c.42,3.31,5.77,3.06,5.35-.27q-2.54-20.17-3.46-40.43c-.15-3.33-5.5-3.06-5.34.27Z"/><path class="cls-18" d="M1779.09,292.68q.57,18.7,2.44,37.39c.33,3.32,5.68,3.07,5.35-.26q-1.87-18.69-2.44-37.4c-.1-3.32-5.45-3.05-5.35.27Z"/></g><path class="cls-3" d="M244.61,224.41s-36.19-39.47-76-25S136.7,320.17,288,325.39Z"/><path class="cls-3" d="M244.61,224.41s-3.08-52,36.27-67.47,112.24,66.23,7.1,168.45Z"/><path class="cls-14" d="M232.32,220.72s-36.2-39.46-76-25-31.94,120.76,119.33,126Z"/><path class="cls-19" d="M232.32,220.72s-3.08-52,36.26-67.46,112.24,66.23,7.1,168.44Z"/><path class="cls-6" d="M229.65,225.66a1.1,1.1,0,0,1-1.19-.26,72,72,0,0,0-5.8-5.47,1,1,0,0,1-.06-1.39,1.09,1.09,0,0,1,1.48-.06,76.26,76.26,0,0,1,6,5.64,1,1,0,0,1-.11,1.38A.92.92,0,0,1,229.65,225.66Z"/><path class="cls-6" d="M244.64,315.58a1.19,1.19,0,0,1-.53.06c-5.46-.71-10.8-1.59-15.88-2.63a1,1,0,0,1-.79-1.17,1,1,0,0,1,1.24-.75c5,1,10.31,1.91,15.71,2.61a1,1,0,0,1,.89,1.1A1,1,0,0,1,244.64,315.58Zm-31.29-6.48a1.11,1.11,0,0,1-.7,0,151.32,151.32,0,0,1-15.1-5.35,1,1,0,0,1-.54-1.29,1.07,1.07,0,0,1,1.38-.5,152.2,152.2,0,0,0,14.89,5.27,1,1,0,0,1,.68,1.23A1,1,0,0,1,213.35,309.1Zm-29.21-12.26a1.06,1.06,0,0,1-.93-.07A107.43,107.43,0,0,1,170,288a.93.93,0,0,1-.13-1.38,1.08,1.08,0,0,1,1.47-.13,105.94,105.94,0,0,0,12.91,8.65.94.94,0,0,1,.36,1.34A1,1,0,0,1,184.14,296.84Zm-24.41-19.32a1.1,1.1,0,0,1-1.19-.28,78.19,78.19,0,0,1-9.2-12.53,1,1,0,0,1,.42-1.34,1.08,1.08,0,0,1,1.41.39,75.81,75.81,0,0,0,9,12.22.93.93,0,0,1-.13,1.38A1,1,0,0,1,159.73,277.52ZM144.5,251.27l-.1,0a1.05,1.05,0,0,1-1.29-.67,57.3,57.3,0,0,1-2.56-15.08,1,1,0,0,1,1-1,1,1,0,0,1,1.07,1,54.76,54.76,0,0,0,2.48,14.58A1,1,0,0,1,144.5,251.27Zm66.65-40.43a1.08,1.08,0,0,1-1-.09,78.84,78.84,0,0,0-14-6.92,1,1,0,0,1-.58-1.27A1.06,1.06,0,0,1,197,202a81.37,81.37,0,0,1,14.36,7.1,1,1,0,0,1,.3,1.36A1,1,0,0,1,211.15,210.84ZM144,221.57a1.15,1.15,0,0,1-.69,0,1,1,0,0,1-.7-1.22,32.79,32.79,0,0,1,8-13.42,1.08,1.08,0,0,1,1.47,0,.94.94,0,0,1,0,1.39,31,31,0,0,0-7.5,12.63A1,1,0,0,1,144,221.57Zm37.49-21.35a1.15,1.15,0,0,1-.49.07,47.46,47.46,0,0,0-15.54,1.15,1.07,1.07,0,0,1-1.28-.7,1,1,0,0,1,.75-1.2,49.7,49.7,0,0,1,16.27-1.2,1,1,0,0,1,.29,1.88Z"/><path class="cls-6" d="M269.09,317.52a1,1,0,0,1-.43.07q-4.28-.15-8.38-.41a1,1,0,0,1-1-1,1,1,0,0,1,1.11-.92c2.72.18,5.49.31,8.32.41a1,1,0,0,1,1,1A1,1,0,0,1,269.09,317.52Z"/><path class="cls-6" d="M237.22,222.8a1,1,0,0,0,.65-1,70.17,70.17,0,0,1,.14-7.72,1,1,0,0,0-1-1,1,1,0,0,0-1.11.92,71.52,71.52,0,0,0-.14,7.95,1,1,0,0,0,1.1.92A1.28,1.28,0,0,0,237.22,222.8Z"/><path class="cls-6" d="M291.81,297.2a.94.94,0,0,1-.17-1.38c3.37-4,6.54-8.09,9.39-12.09a1.08,1.08,0,0,1,1.45-.27.94.94,0,0,1,.29,1.35c-2.89,4.06-6.08,8.17-9.5,12.23a1,1,0,0,1-.42.3A1.08,1.08,0,0,1,291.81,297.2Zm17.9-24.94a.94.94,0,0,1-.42-1.33,132.53,132.53,0,0,0,6.83-13.49,1.06,1.06,0,0,1,1.36-.53,1,1,0,0,1,.58,1.28,137.53,137.53,0,0,1-6.94,13.68,1,1,0,0,1-.52.44A1.07,1.07,0,0,1,309.71,272.26Zm12.22-27.75a1,1,0,0,1-.74-1.2,92.73,92.73,0,0,0,2.92-14.64,1,1,0,0,1,1.15-.86,1,1,0,0,1,.93,1.08,95.39,95.39,0,0,1-3,14.92,1,1,0,0,1-.62.66A1.06,1.06,0,0,1,321.93,244.51Zm3.65-29.78a1,1,0,0,1-1.11-.91,71.3,71.3,0,0,0-2.57-14.64,1,1,0,0,1,.74-1.2,1,1,0,0,1,1.28.69,72.85,72.85,0,0,1,2.63,15,1,1,0,0,1-.65,1A1.14,1.14,0,0,1,325.58,214.73Zm-9.41-29.35a58.34,58.34,0,0,0-9-12.11.94.94,0,0,1,.07-1.39,1.07,1.07,0,0,1,1.47.07,60.44,60.44,0,0,1,9.3,12.52,1,1,0,0,1-.44,1.32l-.1.05A1.08,1.08,0,0,1,316.17,185.38ZM239,200.13a1,1,0,0,1-.79-1.17,71.51,71.51,0,0,1,5.1-14.47,1.08,1.08,0,0,1,1.38-.49,1,1,0,0,1,.52,1.3,69.8,69.8,0,0,0-5,14.09,1,1,0,0,1-.63.69A1.17,1.17,0,0,1,239,200.13ZM295,164a35.25,35.25,0,0,0-14.74-4.22,1,1,0,0,1-1-1,1,1,0,0,1,1.09-.94A37.39,37.39,0,0,1,296,162.32a1,1,0,0,1,.4,1.34,1,1,0,0,1-.52.43A1.05,1.05,0,0,1,295,164Zm-43,8.91a1,1,0,0,1-.11-1.38,46.52,46.52,0,0,1,12.61-9.72,1.09,1.09,0,0,1,1.42.37,1,1,0,0,1-.4,1.34,44.19,44.19,0,0,0-12,9.29,1.18,1.18,0,0,1-.4.27A1.12,1.12,0,0,1,252.06,172.94Z"/><path class="cls-6" d="M276.66,314.65a1,1,0,0,0,.36-.22c2-1.93,3.9-3.84,5.74-5.75a1,1,0,0,0-.07-1.39,1.1,1.1,0,0,0-1.48.07c-1.83,1.89-3.72,3.8-5.69,5.7a.94.94,0,0,0,0,1.39A1.08,1.08,0,0,0,276.66,314.65Z"/><ellipse class="cls-3" cx="460.47" cy="465.09" rx="100.07" ry="93.92"/><ellipse class="cls-6" cx="430.95" cy="465.09" rx="100.07" ry="93.92"/><ellipse class="cls-20" cx="430.95" cy="465.09" rx="85.4" ry="80.15"/><ellipse class="cls-7" cx="429.09" cy="412.95" rx="13.7" ry="45.67"/><ellipse class="cls-7" cx="429.09" cy="508.39" rx="13.7" ry="45.67"/><ellipse class="cls-7" cx="460.47" cy="423.12" rx="46.84" ry="13.36" transform="translate(-159.94 501.62) rotate(-49.79)"/><path class="cls-7" d="M408.48,506.15c-16.59,19.84-34.87,32.38-40.82,28s2.67-24,19.26-43.87,34.86-32.37,40.82-28S425.07,486.31,408.48,506.15Z"/><path class="cls-7" d="M481.74,459.7c-25.81,7-48.44,7.22-50.55.39s17.09-18,42.9-25.09,48.44-7.21,50.55-.39S507.54,452.67,481.74,459.7Z"/><path class="cls-7" d="M384.08,486.33c-25.8,7-48.44,7.22-50.55.4s17.1-18.06,42.91-25.1,48.43-7.21,50.55-.39S409.89,479.3,384.08,486.33Z"/><path class="cls-7" d="M474.25,486.09c-25.85-6.9-45.13-18-43.06-24.86s24.7-6.78,50.55.12,45.13,18,43.06,24.86S500.1,493,474.25,486.09Z"/><path class="cls-7" d="M376.43,460c-25.85-6.9-45.13-18-43.06-24.86s24.71-6.78,50.56.12,45.12,18,43.05,24.86S402.28,466.89,376.43,460Z"/><path class="cls-7" d="M413,413.61c14.59,21.18,21.26,41.48,14.91,45.33S404.56,448.76,390,427.57s-21.26-41.47-14.91-45.33S398.4,392.43,413,413.61Z"/><path class="cls-7" d="M468.2,493.76c14.59,21.18,21.26,41.48,14.91,45.34s-23.34-10.19-37.93-31.37-21.26-41.48-14.91-45.34S453.61,472.58,468.2,493.76Z"/><path class="cls-4" d="M424.2,425.22c7.42,16.86,9.34,32.11,4.28,34.08s-15.18-10.12-22.6-27-9.34-32.11-4.28-34.07S416.78,408.36,424.2,425.22Z"/><ellipse class="cls-4" cx="443.13" cy="492.56" rx="9.81" ry="33.36" transform="translate(-162.08 222.93) rotate(-24.01)"/><path class="cls-4" d="M448.56,430c-5.25,17.56-13.78,30.68-19.05,29.29s-5.29-16.75,0-34.32,13.78-30.67,19-29.29S453.81,412.38,448.56,430Z"/><path class="cls-4" d="M428.7,496.41c-5.25,17.57-13.77,30.68-19.05,29.29s-5.28-16.75,0-34.31,13.78-30.68,19.05-29.29S434,478.85,428.7,496.41Z"/><path class="cls-4" d="M464,446.37c-15.17,11.4-30.25,17.38-33.67,13.37s6.11-16.5,21.29-27.9,30.25-17.38,33.67-13.36S479.17,435,464,446.37Z"/><path class="cls-4" d="M406.56,489.49c-15.18,11.4-30.25,17.38-33.67,13.37s6.11-16.5,21.29-27.9,30.25-17.38,33.67-13.36S421.74,478.1,406.56,489.49Z"/><ellipse class="cls-4" cx="465.62" cy="456.71" rx="35.16" ry="9.31" transform="matrix(0.99, -0.11, 0.11, 0.99, -46.04, 52.24)"/><path class="cls-4" d="M393.69,473.87c-19.31,2.09-35.47-.35-36.09-5.46s14.51-10.93,33.82-13,35.47.35,36.09,5.46S413,471.77,393.69,473.87Z"/><path class="cls-4" d="M404.48,433.39c16,10.37,26.42,22.21,23.3,26.43s-18.59-.76-34.58-11.13-26.42-22.21-23.31-26.44S388.49,423,404.48,433.39Z"/><path class="cls-4" d="M465,472.65c16,10.37,26.42,22.21,23.31,26.43s-18.6-.76-34.58-11.13-26.43-22.21-23.31-26.44S449,462.27,465,472.65Z"/><path class="cls-4" d="M435.12,461.38a5,5,0,1,1-5-4.67A4.83,4.83,0,0,1,435.12,461.38Z"/></g></svg>