<svg id="Capa_1" data-name="Capa 1" xmlns="http://www.w3.org/2000/svg" xmlns:xlink="http://www.w3.org/1999/xlink" viewBox="0 0 1920 430"><defs><style>.cls-1{fill:none;}.cls-2{clip-path:url(#clip-path);}.cls-3{fill:#f9d4da;}.cls-4{fill:#2eaeb8;}.cls-5{fill:#6dd4d9;}.cls-6{fill:#e8e8e8;}.cls-7{fill:#dca9a9;}.cls-8{fill:#e2abab;}.cls-9{fill:#f5c2c2;}.cls-10{fill:#933653;}.cls-11{fill:#e9b5b5;}.cls-12{fill:#fff;}.cls-13{fill:#e36b7f;}.cls-14{fill:#fe8696;}.cls-15{fill:#ffa5b5;}</style><clipPath id="clip-path"><rect class="cls-1" y="-166" width="1920" height="596"/></clipPath></defs><title>parallax</title><g class="cls-2"><path class="cls-3" d="M1333.82,418.36s11.1-67.84,94.81-62Z"/><path class="cls-3" d="M1333.82,418.36l94.81-62S1416.3,422.16,1333.82,418.36Z"/><path class="cls-4" d="M1327.73,414.85s11.1-67.84,94.81-62Z"/><path class="cls-5" d="M1327.73,414.85l94.81-62S1410.22,418.65,1327.73,414.85Z"/><polygon class="cls-3" points="1188.38 692 781.29 523.29 1009.63 37.94 1416.72 206.65 1188.38 692"/><polygon class="cls-6" points="1178 679.18 770.91 510.47 999.25 25.12 1406.34 193.83 1178 679.18"/><path class="cls-7" d="M796.67,139.68c-9.25,3.76-24.74,15.63-31,19s-20.08,14.05-21.42,17,4.26,21.09,9.16,42c7.58-12.55,41.9-39.33,41.9-39.33,20.07-16.67,20.06-23.84,15.6-33.88S796.67,139.68,796.67,139.68Z"/><path class="cls-8" d="M796.66,183.57c-7.11,2.89-19,12-23.82,14.59S757.4,209,756.38,211.22s3.27,16.21,7,32.29c5.82-9.64,32.21-30.23,32.21-30.23,15.43-12.81,15.42-18.33,12-26.05S796.66,183.57,796.66,183.57Z"/><polygon class="cls-5" points="736.45 293.13 1129.89 242.58 1159.48 111.66 911.37 32.09 736.45 293.13"/><path class="cls-8" d="M1121.46,96c10.21,4.16,27.31,17.26,34.2,21s22.17,15.51,23.64,18.74-4.7,23.28-10.11,46.37c-8.36-13.86-46.25-43.41-46.25-43.41-22.15-18.4-22.14-26.32-17.22-37.41S1121.46,96,1121.46,96Z"/><polygon class="cls-4" points="1159.48 111.66 1129.89 242.58 974.46 355.28 1066.97 46.16 1159.48 111.66"/><path class="cls-9" d="M1240,200.1s7.88,15.7,15.75,27.71,7.87,35.09,7.87,35.09,7.87,21.25,6.89,28.63-5.9,68.35-5.9,110.84,20.66,116.4,20.66,116.4H1166.24s-19.68-104.4-32.48-122.87-50.18-73-67.9-103.44S996,217.65,983.2,200.1s-11.31-27.71,3-35.1,29.52,4.16,47.72,22.17,72,62.34,96,55.41,33.89-37.4,39.3-60.49,11.81-49.41,10.33-52.65-12.3-13.39-19.19-17.08-31-13.86-38.87-20.78S1111.13,63.87,1142.62,68s77.25,30.47,83.15,38.79,6.4,80.35,7.88,85S1240,200.1,1240,200.1Z"/><path class="cls-10" d="M1169.19,183.15a1.13,1.13,0,0,0,1.08-.74c11-33,10.39-52.81,10.39-53a1.16,1.16,0,0,0-1.18-1,1.09,1.09,0,0,0-1.09,1.1c0,.19.59,19.7-10.28,52.29a1,1,0,0,0,.74,1.33A1,1,0,0,0,1169.19,183.15Z"/><path class="cls-10" d="M1180.36,130.52c3.15,0,13.77-.39,18.7-5.44a1,1,0,0,0-.07-1.5,1.17,1.17,0,0,0-1.6.07c-5,5.11-17.69,4.75-17.82,4.73a1.07,1.07,0,1,0-.09,2.13Z"/><path class="cls-10" d="M1160.34,113.42a1.17,1.17,0,0,0,.85-.36,21.64,21.64,0,0,0,4.7-11.18,1.09,1.09,0,0,0-1-1.2,1.11,1.11,0,0,0-1.27.92,20,20,0,0,1-4.16,10.06,1,1,0,0,0,.11,1.5A1.22,1.22,0,0,0,1160.34,113.42Z"/><path class="cls-10" d="M1188.87,141.13a1.11,1.11,0,0,0,1.12-.9,1.07,1.07,0,0,0-1-1.21,15.85,15.85,0,0,1-8.88-4,1.19,1.19,0,0,0-1.6-.1,1,1,0,0,0-.11,1.5c.14.15,3.52,3.73,10.25,4.7Z"/><path class="cls-10" d="M1010.27,219.17a1.2,1.2,0,0,0,.65-.19l11.81-7.85a1,1,0,0,0,.27-1.49,1.18,1.18,0,0,0-1.58-.25l-11.81,7.85a1,1,0,0,0-.27,1.48A1.14,1.14,0,0,0,1010.27,219.17Z"/><path class="cls-10" d="M1016.17,222.87a1.14,1.14,0,0,0,.64-.19l11.81-7.62a1,1,0,0,0,.29-1.48,1.18,1.18,0,0,0-1.57-.27l-11.81,7.62a1,1,0,0,0-.29,1.48A1.15,1.15,0,0,0,1016.17,222.87Z"/><path class="cls-11" d="M1129.89,242.58c-15.66,9.26-46.31,7.39-78.79-23.41A705.25,705.25,0,0,0,986.16,165c14.26-7.39,29.52,4.16,47.72,22.17S1105.84,249.51,1129.89,242.58Z"/><path class="cls-11" d="M1205.64,518.77c25.21-33.33,11-92.78,11.77-121.95,1-36,11.81-85.89,18-127.45a236.75,236.75,0,0,0-1.79-77.58c1.47,4.61,6.39,8.31,6.39,8.31s7.88,15.7,15.75,27.71,7.87,35.09,7.87,35.09,7.87,21.25,6.89,28.63-5.9,68.35-5.9,110.84,20.66,116.4,20.66,116.4Z"/><path class="cls-10" d="M1233.65,215a1.12,1.12,0,0,0,1.12-.91c1.48-9.26.06-21.9,0-22.44a1.09,1.09,0,0,0-1.24-.94,1.07,1.07,0,0,0-1,1.17c0,.13,1.44,12.9,0,21.9a1.06,1.06,0,0,0,1,1.2Z"/><path class="cls-10" d="M994.52,206.7a1.06,1.06,0,0,0,.35,0c14.26-4.3,16.42-14.69,16.51-15.13a1,1,0,0,0,0-.49,38.87,38.87,0,0,0-19.77-21.9,1.17,1.17,0,0,0-1.52.48,1,1,0,0,0,.51,1.42c13.08,6.14,17.86,18.45,18.52,20.35-.39,1.54-3,9.66-14.92,13.25a1.06,1.06,0,0,0-.73,1.34A1.13,1.13,0,0,0,994.52,206.7Z"/><path class="cls-8" d="M798.54,96c-10.21,4.16-27.31,17.26-34.2,21s-22.17,15.51-23.64,18.74,4.7,23.28,10.11,46.37c8.36-13.86,46.25-43.41,46.25-43.41,22.15-18.4,22.14-26.32,17.22-37.41S798.54,96,798.54,96Z"/><path class="cls-9" d="M680,200.1s-7.88,15.7-15.75,27.71-7.87,35.09-7.87,35.09-7.87,21.25-6.89,28.63,5.9,68.35,5.9,110.84-20.66,116.4-20.66,116.4H753.76s19.68-104.4,32.48-122.87,50.18-73,67.9-103.44S924,217.65,936.8,200.1s11.31-27.71-3-35.1-29.52,4.16-47.72,22.17-72,62.34-96,55.41-33.89-37.4-39.3-60.49S739,132.68,740.48,129.44s12.3-13.39,19.19-17.08,31-13.86,38.87-20.78S808.87,63.87,777.38,68s-77.25,30.47-83.15,38.79-6.4,80.35-7.88,85S680,200.1,680,200.1Z"/><path class="cls-10" d="M750.81,183.15a1.13,1.13,0,0,1-1.08-.74c-11-33-10.39-52.81-10.39-53a1.16,1.16,0,0,1,1.18-1,1.09,1.09,0,0,1,1.09,1.1c0,.19-.59,19.7,10.28,52.29a1,1,0,0,1-.74,1.33A1,1,0,0,1,750.81,183.15Z"/><path class="cls-10" d="M739.64,130.52c-3.15,0-13.77-.39-18.7-5.44a1,1,0,0,1,.07-1.5,1.17,1.17,0,0,1,1.6.07c5,5.11,17.69,4.75,17.82,4.73a1.07,1.07,0,1,1,.09,2.13Z"/><path class="cls-10" d="M759.66,113.42a1.17,1.17,0,0,1-.85-.36,21.64,21.64,0,0,1-4.7-11.18,1.09,1.09,0,0,1,1-1.2,1.11,1.11,0,0,1,1.27.92,20,20,0,0,0,4.16,10.06,1,1,0,0,1-.11,1.5A1.22,1.22,0,0,1,759.66,113.42Z"/><path class="cls-10" d="M731.13,141.13a1.11,1.11,0,0,1-1.12-.9,1.07,1.07,0,0,1,1-1.21,15.85,15.85,0,0,0,8.88-4,1.19,1.19,0,0,1,1.6-.1,1,1,0,0,1,.11,1.5c-.14.15-3.52,3.73-10.25,4.7Z"/><path class="cls-10" d="M909.73,219.17a1.2,1.2,0,0,1-.65-.19l-11.81-7.85a1,1,0,0,1-.27-1.49,1.18,1.18,0,0,1,1.58-.25l11.81,7.85a1,1,0,0,1,.27,1.48A1.14,1.14,0,0,1,909.73,219.17Z"/><path class="cls-10" d="M903.83,222.87a1.14,1.14,0,0,1-.64-.19l-11.81-7.62a1,1,0,0,1-.29-1.48,1.18,1.18,0,0,1,1.57-.27l11.81,7.62a1,1,0,0,1,.29,1.48A1.15,1.15,0,0,1,903.83,222.87Z"/><path class="cls-10" d="M686.35,215a1.12,1.12,0,0,1-1.12-.91c-1.48-9.26-.06-21.9,0-22.44a1.09,1.09,0,0,1,1.24-.94,1.07,1.07,0,0,1,1,1.17c0,.13-1.44,12.9,0,21.9a1.06,1.06,0,0,1-1,1.2Z"/><path class="cls-10" d="M925.48,206.7a1.06,1.06,0,0,1-.35,0c-14.26-4.3-16.42-14.69-16.51-15.13a1,1,0,0,1,0-.49,38.87,38.87,0,0,1,19.77-21.9,1.17,1.17,0,0,1,1.52.48,1,1,0,0,1-.51,1.42c-13.08,6.14-17.86,18.45-18.52,20.35.39,1.54,3,9.66,14.92,13.25a1.06,1.06,0,0,1,.73,1.34A1.13,1.13,0,0,1,925.48,206.7Z"/><path class="cls-12" d="M986.24,186.72l1.28,2.35a1.5,1.5,0,0,1,.27.8,1.58,1.58,0,0,1,0,.86,1.61,1.61,0,0,1-.41.73,1.71,1.71,0,0,1-.64.55,2.42,2.42,0,0,1-1.77.22,2.3,2.3,0,0,1-1.36-1l-1.28-2.35a1.59,1.59,0,0,1-.27-.8,1.58,1.58,0,0,1,0-.86,1.61,1.61,0,0,1,.41-.73,1.71,1.71,0,0,1,.64-.55,2.47,2.47,0,0,1,1.77-.22,2.3,2.3,0,0,1,1.36,1Z"/><path class="cls-12" d="M988.73,196.49a2.15,2.15,0,1,1,0-4.3,2.15,2.15,0,1,1,0,4.3Z"/><path class="cls-12" d="M936,179.55l-.08-.07.41.3a2.1,2.1,0,0,0-.42-.22l.49.19a2.44,2.44,0,0,0-.53-.14l.54.07a2.53,2.53,0,0,0-.55,0l.54-.07a2,2,0,0,0-.5.13l.48-.2-.27.14a2.07,2.07,0,0,1-2.26-.15,1.5,1.5,0,0,1-.52-.54,1.81,1.81,0,0,1-.21-1.47,2,2,0,0,1,.94-1.13,3.57,3.57,0,0,1,1.07-.42,5.71,5.71,0,0,1,.83-.11,1.93,1.93,0,0,1,.34,0,4.47,4.47,0,0,1,1.15.2,7.19,7.19,0,0,1,.76.32,5.24,5.24,0,0,1,.66.47,1.4,1.4,0,0,1,.42.61,1.38,1.38,0,0,1,.18.74,1.32,1.32,0,0,1-.18.73,1.43,1.43,0,0,1-.42.62,2.08,2.08,0,0,1-1.43.55l-.54-.06a2.08,2.08,0,0,1-.9-.49Z"/><path class="cls-12" d="M939,185.06a1.91,1.91,0,1,1,0-3.81,1.91,1.91,0,1,1,0,3.81Z"/><path class="cls-11" d="M778.7,389.44c11.4-13,26.8-28.9,41.49-43.54-13.82,20.8-27.26,40.33-34,50-12.8,18.47-32.48,122.87-32.48,122.87H675C722.25,493.87,748.82,423.61,778.7,389.44Z"/><path class="cls-3" d="M1450.16,174c-.27-.44-.59-.86-.88-1.3a50.89,50.89,0,0,0-.64-7.05,2.7,2.7,0,0,0-3.36-2.28,49.83,49.83,0,0,0,4.35-4.12c2.9-3.11-1.94-7.69-4.86-4.56a45.87,45.87,0,0,1-5.08,4.66c-.49-1.68-1-3.34-1.68-5,1-1,2-1.87,3-2.76a3.36,3.36,0,0,0,2.76-2.21c.77-.57,1.55-1.14,2.35-1.68,3.56-2.4.13-8-3.47-5.57-.91.61-1.8,1.24-2.68,1.88q-6.21-3.75-12.64-7.13c-.72-.83-1.46-1.65-2.22-2.44-6.19-10.09-13.93-19.36-24.68-25.48-3.79-2.15-7.25,3.42-3.47,5.57l.22.14c-1.14.54-2.26,1.11-3.36,1.72l-2.11-.5q-4.23-3.27-8.71-6.24a3.18,3.18,0,0,0-4.38-2.76,3.31,3.31,0,0,0-4.42,3.23,50.84,50.84,0,0,0-4.78,4.49,68.35,68.35,0,0,0-6.78,1q-5.28-1.35-10.52-2.92a3.11,3.11,0,0,0-3.83,1.56,3.41,3.41,0,0,0-1.85,1.81c-.91,2.11-1.77,4.25-2.59,6.4l-1.08.58c-1.82-.91-3.64-1.8-5.47-2.69a3.51,3.51,0,0,0-4.39,1,2.79,2.79,0,0,0-1.44,1.47c-1.28,2.78-2.55,5.57-3.68,8.4-2.45.46-4.88,1-7.27,1.71-4.22,1.21-2.42,7.44,1.82,6.22.7-.2,1.4-.36,2.11-.54a60.32,60.32,0,0,0-4.23,5.94c-1.65-1.81-5.26-1.91-5.87,1a35.5,35.5,0,0,0-.67,7.86c-1.62,1.29-3.2,2.62-4.74,4a3.52,3.52,0,0,0-.49.55c-2,.16-3.78,1.67-3,3.92q1.07,3,2.19,6a14.54,14.54,0,0,0-1.36,3.57c-1.6.77-2.66,2.54-1.49,4.41.28.44.6.86.89,1.3a49.53,49.53,0,0,0,.64,7.05,2.68,2.68,0,0,0,3.36,2.27,51.5,51.5,0,0,0-4.35,4.13c-2.9,3.11,1.94,7.69,4.86,4.56a45,45,0,0,1,3.38-3.24c.5,1.72,1.07,3.41,1.73,5.06-.46.42-.92.84-1.39,1.24a3.39,3.39,0,0,0-2.77,2.21c-.76.57-1.54,1.14-2.34,1.68-3.56,2.4-.13,8,3.47,5.57.91-.61,1.8-1.24,2.67-1.88,2.56,1.54,5.13,3,7.74,4.49a63.23,63.23,0,0,0,12,12.39A64.19,64.19,0,0,0,1354.56,241c3.79,2.16,7.25-3.41,3.47-5.56l-.23-.14,1.08-.52a70.56,70.56,0,0,0,7.36,1.53c1.88,1.38,3.8,2.71,5.75,4a3.17,3.17,0,0,0,4.37,2.76,3.31,3.31,0,0,0,4.43-3.23c1.23-1,2.42-2.08,3.54-3.19a67.69,67.69,0,0,0,9.93-1.84c2.87.77,5.74,1.57,8.61,2.42a3.1,3.1,0,0,0,3.82-1.56,3.37,3.37,0,0,0,1.85-1.81c.85-1.95,1.64-3.91,2.4-5.89.53-.31,1-.63,1.57-1q2.58,1.29,5.18,2.55a3.51,3.51,0,0,0,4.39-1,2.79,2.79,0,0,0,1.44-1.47c1.28-2.78,2.55-5.57,3.68-8.4,2.45-.46,4.88-1,7.27-1.71,4.22-1.21,2.42-7.44-1.83-6.22-1,.28-2,.52-2.93.76a62.63,62.63,0,0,0,4.57-6.84c1.26,2.43,5.68,2.93,6.36-.36a35.5,35.5,0,0,0,.67-7.86c1.62-1.29,3.2-2.62,4.74-4a4.12,4.12,0,0,0,.49-.55c2-.16,3.78-1.67,3-3.92q-1.08-3-2.19-6a15.12,15.12,0,0,0,1.36-3.57C1450.28,177.68,1451.34,175.91,1450.16,174ZM1440.72,188c.44-.2.86-.41,1.27-.64v0a3.42,3.42,0,0,0-.81.55l-.56.47Zm-37.88-69.43c.8.61,1.57,1.25,2.33,1.9-.92-.41-1.85-.81-2.78-1.19A2.36,2.36,0,0,0,1402.84,118.54Z"/><ellipse class="cls-13" cx="1361.74" cy="168.55" rx="65.38" ry="61.37"/><path class="cls-14" d="M1299.47,138.54c-1.78,8.67,0,17.24,3,25.52a132.5,132.5,0,0,0,9.13,20.24,139.53,139.53,0,0,0,28.22,35.45,147.13,147.13,0,0,0,21.07,15.85c3.7,2.3,7.14-3.28,3.47-5.57a135.83,135.83,0,0,1-39.52-37.31,126.94,126.94,0,0,1-13-23.22c-3.85-9.09-7.75-19.35-5.72-29.25.83-4.05-5.79-5.79-6.63-1.71Z"/><path class="cls-14" d="M1290,168.83c9.39,15,23.45,26.9,39.41,35.54a164.77,164.77,0,0,0,27.77,11.69q7.38,2.38,14.93,4.25c2.35.59,4.7,1.13,7.06,1.67s5,1,6.93,2.48c3.4,2.61,8.28-1.93,4.86-4.56-3.82-2.94-8.32-3.74-13-4.83s-9.4-2.32-14-3.7a165,165,0,0,1-28.35-11.14c-16.07-8.24-30.31-19.74-39.66-34.66-2.24-3.57-8.18-.33-5.93,3.26Z"/><path class="cls-14" d="M1290.6,154.88A346.09,346.09,0,0,0,1311,201.44c6.79,12.67,15.49,24.89,28.66,32.38,3.8,2.16,7.26-3.42,3.47-5.56-12.43-7.07-20.28-18.9-26.61-30.84a339.12,339.12,0,0,1-19.27-44.26c-1.4-3.91-8-2.23-6.63,1.72Z"/><path class="cls-14" d="M1297.63,197.3a250.06,250.06,0,0,0,43,21.15,112.64,112.64,0,0,0,23.41,5.89,179.54,179.54,0,0,1,23.93,5.72,3.24,3.24,0,1,0,1.82-6.22,177.68,177.68,0,0,0-23.38-5.64,115,115,0,0,1-23-5.61,240.49,240.49,0,0,1-42.29-20.86c-3.7-2.3-7.15,3.29-3.47,5.57Z"/><path class="cls-14" d="M1323.89,203.35q-3.57-21.66-6.28-43.44c-.86-6.87-2.06-13.89-1.56-20.83s3.54-13.67,6.47-20.05c1.74-3.78-4.18-7.06-5.93-3.26-3,6.57-6,13.18-7.08,20.33-1.08,7.58.17,15.23,1.1,22.77q2.85,23.15,6.65,46.19c.67,4.09,7.29,2.36,6.63-1.71Z"/><path class="cls-14" d="M1331.57,109.05c-7.15,16.5-11.35,34.3-11,52.17.37,15.88,4.18,32.59,13.81,45.91a49.66,49.66,0,0,0,19.7,16.49c4,1.78,7.46-3.78,3.47-5.57-13.52-6.08-21.75-18.61-26-31.71-5-15.56-5.23-32.33-2.08-48.24a134.44,134.44,0,0,1,8.67-27.33c1.66-3.84-5-5.52-6.63-1.72Z"/><path class="cls-14" d="M1313.74,150.65c1,17.26,13.25,30.57,26,41.92,6.29,5.59,13,11.1,21,14.46,8.42,3.56,17.83,5,27,5.76a90.23,90.23,0,0,0,31.86-2.93c4.21-1.21,2.42-7.44-1.83-6.22a85.89,85.89,0,0,1-32.68,2.46c-10.68-1.11-21-3.6-29.8-9.54a122.5,122.5,0,0,1-22.07-19.67c-6.68-7.43-12-16.36-12.57-26.24-.24-4.13-7.12-4.15-6.87,0Z"/><path class="cls-14" d="M1334,210.47c34.35,7.48,71.75-2.17,97.15-25.14,3.19-2.89-1.67-7.45-4.86-4.56-23.59,21.34-58.53,30.43-90.46,23.48-4.3-.94-6.14,5.28-1.83,6.22Z"/><path class="cls-15" d="M1332.1,199.36c12.9,9.64,30,8.7,44.79,3.91,8.19-2.64,16.2-6,24.09-9.37a36.7,36.7,0,0,0,10.14-6.06c3-2.6,5.33-5.74,8.1-8.52,5.5-5.5,12.45-10.63,13.74-18.55.66-4.06-6-5.81-6.63-1.71-1.27,7.78-9.31,12.65-14.41,18.29-2.91,3.22-5.68,6.48-9.59,8.68-4.14,2.32-8.77,3.9-13.18,5.69-15.59,6.36-36.83,14.57-52.19,3.08-3.42-2.56-8.32,2-4.86,4.56Z"/><path class="cls-14" d="M1427.1,160.28c.51,3.4,1,7.36-.26,10.67-1.54,3.91-5.73,4.83-9.62,5.76a188.58,188.58,0,0,1-30.84,4.77,205.09,205.09,0,0,1-30.56-.1c-8.81-.68-19.58-1.71-24.73-9.47-2.34-3.52-8.28-.28-5.94,3.25,4.5,6.78,12.3,10.19,20.44,11.53a164.43,164.43,0,0,0,27.7,1.75,206.49,206.49,0,0,0,28.65-2.21c4.67-.69,9.32-1.54,13.92-2.56,3.93-.88,8.24-1.65,11.69-3.73,7.8-4.72,7.32-13.79,6.18-21.38-.62-4.09-7.24-2.35-6.63,1.72Z"/><path class="cls-15" d="M1317.47,123.15a336.89,336.89,0,0,0,25.78,45q7.41,10.86,15.68,21.17c5.4,6.73,11.07,13.26,18.15,18.51,7.9,5.86,16.79,10.28,25.69,14.61,3.92,1.91,7.4-3.65,3.47-5.57-7.59-3.7-15.23-7.42-22.19-12.12-7.27-4.92-13.16-11.23-18.55-17.9a334,334,0,0,1-28.75-41.63q-7.23-12.37-13.35-25.29c-1.79-3.78-7.72-.5-5.93,3.26Z"/><path class="cls-14" d="M1334,179.28c2.63-14.2,10.78-26.57,20.14-37.74,9-10.78,18.8-22.57,32.24-28.64,4-1.8.5-7.36-3.47-5.57-14.25,6.44-24.71,18.91-34.23,30.37-9.83,11.82-18.53,24.87-21.3,39.86-.76,4.06,5.86,5.8,6.62,1.72Z"/><path class="cls-14" d="M1363.19,100.14c-15,10.13-22.42,27.31-28.2,43.21-6.49,17.88-9.73,36.81-6.55,55.6l5.74-3.14-.8-.8c-3-3-7.87,1.52-4.86,4.56.26.27.53.54.8.8,2.56,2.59,6.23-.22,5.74-3.13-2.91-17.26.37-34.83,6.22-51.24,5.13-14.37,11.75-31.11,25.38-40.29,3.56-2.4.14-8-3.47-5.57Z"/><path class="cls-14" d="M1329.75,180.94c19.4,1.18,38.43-3.62,56.19-10.61q6.68-2.64,13.2-5.61c4.14-1.88,8.48-3.68,12.25-6.18s6.47-5.69,9.43-8.9a58.28,58.28,0,0,1,10.42-9c3.56-2.4.14-8-3.47-5.57a65.6,65.6,0,0,0-10.5,8.61c-2.82,2.9-5.25,6.22-8.52,8.7-3.44,2.6-7.74,4.31-11.68,6.12-4.22,1.94-8.48,3.81-12.81,5.54-17.23,6.87-35.66,11.59-54.51,10.44-4.42-.26-4.4,6.19,0,6.45Z"/><path class="cls-14" d="M1429.85,147.6c-10.18,10.93-26.07,16.51-40.47,20.72a178.92,178.92,0,0,1-48.84,7.1,3.23,3.23,0,1,0,0,6.45,185.46,185.46,0,0,0,51.67-7.63c15.16-4.52,31.77-10.57,42.5-22.08,2.9-3.11-1.94-7.69-4.86-4.56Z"/><path class="cls-14" d="M1425.72,197.2c1.79-8.67,0-17.24-2.94-25.52a132.07,132.07,0,0,0-9.13-20.24A139.53,139.53,0,0,0,1385.43,116a147.22,147.22,0,0,0-21.08-15.85c-3.69-2.3-7.14,3.28-3.46,5.57a136.06,136.06,0,0,1,39.52,37.3,127.3,127.3,0,0,1,13,23.23c3.86,9.09,7.76,19.35,5.73,29.25-.84,4,5.78,5.79,6.62,1.71Z"/><path class="cls-15" d="M1435.25,166.91c-9.39-15-23.45-26.9-39.41-35.54a165.12,165.12,0,0,0-27.77-11.69c-4.92-1.59-9.91-3-14.93-4.26q-3.53-.87-7.06-1.66c-2.38-.54-5-1-6.93-2.48-3.4-2.61-8.29,1.93-4.86,4.56,3.82,2.94,8.32,3.74,13,4.83s9.39,2.32,14,3.7a165.52,165.52,0,0,1,28.36,11.13c16.07,8.25,30.3,19.75,39.66,34.67,2.24,3.57,8.18.33,5.93-3.26Z"/><path class="cls-14" d="M1434.59,180.86a344.21,344.21,0,0,0-20.37-46.56c-6.79-12.68-15.49-24.89-28.67-32.39-3.79-2.15-7.25,3.42-3.47,5.57,12.44,7.07,20.29,18.9,26.62,30.84A339.12,339.12,0,0,1,1428,182.58c1.4,3.91,8,2.23,6.62-1.72Z"/><path class="cls-14" d="M1427.57,138.44a250.06,250.06,0,0,0-43-21.15,112.64,112.64,0,0,0-23.41-5.89,179.54,179.54,0,0,1-23.93-5.72,3.24,3.24,0,1,0-1.83,6.22,179.82,179.82,0,0,0,23.39,5.64,113.44,113.44,0,0,1,23,5.61A240.24,240.24,0,0,1,1424.1,144c3.7,2.29,7.15-3.29,3.47-5.57Z"/><path class="cls-14" d="M1401.31,132.39q3.56,21.66,6.28,43.44c.85,6.87,2.06,13.89,1.56,20.83s-3.54,13.67-6.48,20.05c-1.73,3.77,4.19,7.06,5.94,3.26,3-6.57,6.05-13.19,7.08-20.33,1.08-7.58-.17-15.23-1.1-22.77q-2.85-23.16-6.65-46.19c-.67-4.09-7.3-2.36-6.63,1.71Z"/><path class="cls-14" d="M1393.63,226.69c7.15-16.5,11.35-34.31,10.94-52.17-.36-15.88-4.17-32.59-13.8-45.91a49.69,49.69,0,0,0-19.71-16.49c-4-1.78-7.46,3.77-3.47,5.57,13.53,6.08,21.76,18.61,26,31.71,5,15.56,5.23,32.33,2.08,48.24A134.44,134.44,0,0,1,1387,225c-1.66,3.84,5,5.52,6.63,1.72Z"/><path class="cls-14" d="M1411.46,185.09c-1-17.26-13.26-30.57-26-41.92-6.28-5.59-13-11.1-21-14.46-8.42-3.56-17.83-5-27-5.76a90.23,90.23,0,0,0-31.86,2.93c-4.22,1.21-2.42,7.44,1.83,6.22a85.88,85.88,0,0,1,32.68-2.46c10.68,1.1,21,3.6,29.8,9.54A122.5,122.5,0,0,1,1392,158.85c6.67,7.43,12,16.36,12.57,26.24.24,4.13,7.12,4.15,6.87,0Z"/><path class="cls-14" d="M1391.21,125.27c-34.34-7.48-71.75,2.17-97.14,25.14-3.2,2.89,1.67,7.45,4.85,4.56,23.6-21.34,58.53-30.44,90.47-23.48,4.3.94,6.14-5.28,1.82-6.22Z"/><path class="cls-15" d="M1393.09,136.38c-12.89-9.64-30-8.7-44.79-3.91-8.19,2.64-16.2,6-24.08,9.37a37.12,37.12,0,0,0-10.15,6c-3,2.61-5.32,5.75-8.09,8.53-5.5,5.5-12.45,10.63-13.74,18.55-.66,4.06,6,5.81,6.62,1.71,1.27-7.78,9.31-12.65,14.42-18.29,2.91-3.22,5.67-6.48,9.59-8.68,4.14-2.32,8.76-3.9,13.17-5.69,15.6-6.36,36.84-14.57,52.19-3.08,3.43,2.56,8.32-2,4.86-4.56Z"/><path class="cls-14" d="M1298.1,175.46c-.51-3.4-1-7.36.26-10.67,1.54-3.91,5.73-4.83,9.62-5.76a188.41,188.41,0,0,1,30.84-4.77,205,205,0,0,1,30.55.1c8.82.68,19.59,1.71,24.74,9.47,2.33,3.52,8.28.28,5.93-3.25-4.49-6.78-12.29-10.19-20.43-11.53a164.44,164.44,0,0,0-27.7-1.76,208.05,208.05,0,0,0-28.65,2.22c-4.67.69-9.32,1.54-13.92,2.56-3.93.87-8.25,1.65-11.69,3.73-7.8,4.72-7.32,13.79-6.18,21.38.62,4.09,7.24,2.35,6.63-1.72Z"/><path class="cls-15" d="M1407.73,212.59a336.89,336.89,0,0,0-25.78-45q-7.41-10.86-15.68-21.17c-5.4-6.74-11.08-13.26-18.16-18.51-7.9-5.86-16.78-10.28-25.68-14.61-3.92-1.91-7.4,3.65-3.47,5.56,7.59,3.7,15.23,7.42,22.18,12.13,7.27,4.92,13.17,11.23,18.56,17.89a334.07,334.07,0,0,1,28.74,41.64q7.24,12.38,13.35,25.28c1.8,3.79,7.73.51,5.94-3.25Z"/><path class="cls-14" d="M1391.21,156.46c-2.64,14.2-10.79,26.57-20.14,37.74-9,10.78-18.8,22.57-32.24,28.64-4,1.8-.51,7.36,3.47,5.57C1356.55,222,1367,209.5,1376.53,198c9.82-11.82,18.52-24.87,21.3-39.86.76-4.06-5.87-5.81-6.62-1.72Z"/><path class="cls-14" d="M1362,235.6c15-10.13,22.43-27.31,28.21-43.21,6.49-17.88,9.73-36.82,6.55-55.6l-5.74,3.13.8.81c3,3.05,7.87-1.52,4.86-4.56l-.8-.81c-2.56-2.58-6.24.22-5.74,3.14,2.91,17.26-.37,34.83-6.22,51.24-5.13,14.37-11.75,31.1-25.38,40.29-3.57,2.4-.14,8,3.46,5.57Z"/><path class="cls-14" d="M1395.45,154.79c-19.41-1.17-38.43,3.63-56.19,10.62q-6.69,2.64-13.2,5.61c-4.14,1.88-8.48,3.68-12.25,6.18s-6.47,5.69-9.43,8.9a59.4,59.4,0,0,1-10.42,9c-3.57,2.4-.14,8,3.46,5.57a65.78,65.78,0,0,0,10.51-8.61c2.82-2.9,5.24-6.22,8.52-8.7,3.43-2.6,7.74-4.31,11.67-6.12,4.23-1.94,8.49-3.81,12.82-5.54,17.23-6.87,35.65-11.59,54.51-10.45,4.42.27,4.4-6.18,0-6.45Z"/><path class="cls-15" d="M1295.34,188.14c10.19-10.93,26.07-16.51,40.48-20.72a178.15,178.15,0,0,1,48.84-7.1,3.23,3.23,0,1,0,0-6.45A185.09,185.09,0,0,0,1333,161.5c-15.16,4.52-31.77,10.56-42.5,22.07-2.91,3.12,1.94,7.7,4.85,4.57Z"/></g></svg>