<svg id="Capa_1" data-name="Capa 1" xmlns="http://www.w3.org/2000/svg" xmlns:xlink="http://www.w3.org/1999/xlink"
    viewBox="0 0 1920 596">
    <defs>
        <style>
            .cls-1 {
                fill: none;
            }

            .cls-2 {
                clip-path: url(#clip-path);
            }

            .cls-3 {
                fill: #f9d4da;
            }

            .cls-4 {
                fill: #6cc4be;
            }

            .cls-5 {
                fill: #2eaeb8;
            }

            .cls-6 {
                fill: #fff;
            }

            .cls-7 {
                fill: #b1ead0;
            }

            .cls-8 {
                fill: #e5e5e5;
            }

            .cls-9 {
                fill: #00c8be;
            }

            .cls-10 {
                fill: #d3d3d3;
            }

            .cls-11 {
                fill: #fe8696;
            }

            .cls-12 {
                fill: #6dd4d9;
            }

            .cls-13 {
                fill: #fe8699;
            }

            .cls-14 {
                fill: #f0a04c;
            }

            .cls-15 {
                clip-path: url(#clip-path-2);
            }

            .cls-16 {
                fill: #ca7f36;
            }

            .cls-17 {
                clip-path: url(#clip-path-3);
            }
        </style>
        <clipPath id="clip-path">
            <rect class="cls-1" y="1.5" width="1920" height="585" />
        </clipPath>
        <clipPath id="clip-path-2">
            <path class="cls-1"
                d="M1316.6,166.63s-1.55-17.28,12.2-28.12,38-17.06,38-17.06l9.39,11s-2.49,8.38-18.16,22.2S1323.73,157.38,1316.6,166.63Z" />
        </clipPath>
        <clipPath id="clip-path-3">
            <path class="cls-1"
                d="M1434.17,130.07s3.71-17.24,19.81-23.47,40.62-4.75,40.62-4.75l5.51,13.54s-4.84,7.36-23.62,15.89S1443.6,123.32,1434.17,130.07Z" />
        </clipPath>
    </defs>
    <title>parallax</title>
    <g class="cls-2">
        <path class="cls-3"
            d="M1695.44,141.48s-28.91-30-8.52-44.79,27.23-14.37,40.43-34.69,56.94-15.79,57.13,5.76-5.86,28.79,3.21,38.22,7.88,50.84-43.5,46.3S1695.44,141.48,1695.44,141.48Z" />
        <polygon class="cls-3" points="1774.32 156.74 1678 143.57 1680.47 127.61 1776.8 140.79 1774.32 156.74" />
        <polygon class="cls-3" points="1765.35 155.52 1685.71 144.62 1672.16 231.92 1751.79 242.82 1765.35 155.52" />
        <path class="cls-4"
            d="M1689.47,138.13s-28.91-30-8.52-44.78,27.23-14.37,40.43-34.7,56.94-15.79,57.13,5.77-5.86,28.79,3.21,38.22,7.88,50.83-43.5,46.29S1689.47,138.13,1689.47,138.13Z" />
        <path class="cls-5"
            d="M1686.92,96.69c9.56-12.91,30.74-13.18,36.64-29.18a118.13,118.13,0,0,1,8.72-18.07,26.35,26.35,0,0,0-10.9,9.21c-13.2,20.33-20,19.95-40.43,34.7-12.92,9.34-6,24.8.72,34.89C1677.35,115.48,1680.67,105.14,1686.92,96.69Z" />
        <polygon class="cls-6" points="1766.55 153.85 1670.22 140.67 1672.7 124.72 1769.02 137.9 1766.55 153.85" />
        <polygon class="cls-4" points="1757.58 152.62 1677.94 141.73 1664.38 229.03 1744.02 239.92 1757.58 152.62" />
        <polygon class="cls-6" points="1718.96 209.79 1668.44 202.88 1675.01 160.64 1725.52 167.55 1718.96 209.79" />
        <polygon class="cls-7" points="1676.49 141.53 1678.97 125.58 1681.87 125.97 1679.39 141.93 1676.49 141.53" />
        <polygon class="cls-7" points="1686.09 142.84 1688.57 126.89 1691.46 127.29 1688.99 143.24 1686.09 142.84" />
        <polygon class="cls-7" points="1695.68 144.16 1698.16 128.21 1701.06 128.6 1698.58 144.55 1695.68 144.16" />
        <polygon class="cls-7" points="1705.28 145.47 1707.76 129.52 1710.66 129.91 1708.18 145.87 1705.28 145.47" />
        <polygon class="cls-7" points="1714.88 146.78 1717.36 130.83 1720.26 131.22 1717.78 147.18 1714.88 146.78" />
        <polygon class="cls-7" points="1724.48 148.1 1726.95 132.14 1729.85 132.54 1727.37 148.49 1724.48 148.1" />
        <polygon class="cls-7" points="1734.07 149.41 1736.55 133.46 1739.45 133.85 1736.97 149.8 1734.07 149.41" />
        <polygon class="cls-7" points="1743.67 150.72 1746.15 134.77 1749.05 135.16 1746.57 151.12 1743.67 150.72" />
        <polygon class="cls-7" points="1753.27 152.03 1755.75 136.08 1758.64 136.48 1756.16 152.43 1753.27 152.03" />
        <path class="cls-6"
            d="M1734.19,218.47l-1,5.6a3,3,0,0,0,.21,1.62,3.06,3.06,0,0,0,.76,1.4,3.27,3.27,0,0,0,1.32,1,3.49,3.49,0,0,0,1.65.52,4.72,4.72,0,0,0,3.22-.92l.77-.76a4,4,0,0,0,.82-2c.33-1.87.67-3.73,1-5.6a3,3,0,0,0-.21-1.61,3,3,0,0,0-.76-1.41,3.29,3.29,0,0,0-1.32-1,3.34,3.34,0,0,0-1.65-.51,4.66,4.66,0,0,0-3.22.91l-.77.77a3.94,3.94,0,0,0-.81,2Z" />
        <path class="cls-6" d="M1740.13,212.67c5.62.53,6.5-7.68.87-8.21s-6.51,7.68-.87,8.21Z" />
        <polygon class="cls-5" points="1677.94 141.73 1676.69 149.8 1757.58 152.62 1677.94 141.73" />
        <path class="cls-6"
            d="M1764.94,59.57l.57.64c-.15-.17-.29-.35-.44-.53a13.44,13.44,0,0,1,1.86,3c-.09-.21-.18-.41-.28-.62a12.86,12.86,0,0,1,1,3.35l-.09-.69c.06.46.1.92.12,1.39a2.79,2.79,0,0,0,5.57,0,15.9,15.9,0,0,0-4.36-10.25,2.93,2.93,0,0,0-3.93,0,2.56,2.56,0,0,0,0,3.7Z" />
        <path class="cls-6" d="M1768.82,76.67a2.61,2.61,0,1,0,0-5.22,2.61,2.61,0,1,0,0,5.22Z" />
        <path class="cls-6"
            d="M1773.55,111.77a14.45,14.45,0,0,1,.58,2.42c0-.23-.06-.46-.1-.69a13.9,13.9,0,0,1,0,4c0-.23.07-.46.1-.7a14.28,14.28,0,0,1-.69,2.74,2.61,2.61,0,0,0,1.94,3.22,2.87,2.87,0,0,0,3.42-1.83,16.14,16.14,0,0,0,.12-10.52,2.87,2.87,0,0,0-3.43-1.83,2.64,2.64,0,0,0-1.94,3.22Z" />
        <ellipse class="cls-3" cx="1866.87" cy="212.19" rx="53.11" ry="49.85" />
        <ellipse class="cls-8" cx="1849.17" cy="209.59" rx="53.11" ry="49.85" />
        <ellipse class="cls-9" cx="1849.17" cy="209.59" rx="11.68" ry="10.96" />
        <polygon class="cls-3" points="88.94 543.85 -153.94 315.89 172.52 9.5 415.4 237.45 88.94 543.85" />
        <polygon class="cls-3" points="148.02 565.38 -94.86 337.43 231.59 31.04 474.47 258.99 148.02 565.38" />
        <polygon class="cls-3" points="204.13 579.26 -38.74 351.31 287.71 44.92 530.59 272.87 204.13 579.26" />
        <polygon class="cls-10" points="74.47 543.85 -168.41 315.89 158.04 9.5 400.92 237.45 74.47 543.85" />
        <polygon class="cls-11" points="133.54 565.38 -109.33 337.43 217.12 31.04 460 258.99 133.54 565.38" />
        <polygon class="cls-12" points="189.66 579.26 -53.22 351.31 273.23 44.92 516.11 272.87 189.66 579.26" />
        <path class="cls-3"
            d="M1531.18,31.67c-7.24-17.83-157.94,93.7-157.94,93.7s-24.23,6.22-38,17.06-12.2,28.11-12.2,28.11c7.13-9.24,25.73,1.81,41.4-12s18.16-22.2,18.16-22.2S1538.42,49.5,1531.18,31.67Z" />
        <path class="cls-13" d="M1366.77,121.45l9.39,11S1532,45.59,1524.71,27.75,1366.77,121.45,1366.77,121.45Z" />
        <path class="cls-14"
            d="M1316.6,166.63s-1.55-17.28,12.2-28.12,38-17.06,38-17.06l9.39,11s-2.49,8.38-18.16,22.2S1323.73,157.38,1316.6,166.63Z" />
        <g class="cls-15">
            <path class="cls-16"
                d="M1313.76,170.55c8.31-10.52,18.51-19.09,29.26-27.29,11.42-8.71,22.52-13.32,36.39-17.89,3.07-1,.92-5.49-2.14-4.48-14.56,4.8-25.6,9.43-37.5,18.51-11.09,8.46-21.58,17.31-30.15,28.16-1.94,2.46,2.21,5.45,4.14,3Z" />
            <path class="cls-16"
                d="M1373.38,127.38q-21.11,17.44-42.64,34.45c-2.48,2,.76,5.83,3.25,3.86q21.52-17,42.64-34.45c2.43-2-.81-5.88-3.25-3.86Z" />
        </g>
        <path class="cls-6"
            d="M1493.07,51.16c-.22.22.54-.42.22-.22-.09.06-.17.15-.26.22-.28.21-.55.43-.83.63-.72.52-1.45,1-2.19,1.51-2.18,1.45-4.4,2.84-6.63,4.23-5.47,3.39-11,6.71-16.55,10-2.52,1.51-5,3-7.58,4.5a2.47,2.47,0,0,0-.37,3.58,2.88,2.88,0,0,0,3.79.49c10.18-6,20.47-12,30.33-18.46a24.2,24.2,0,0,0,4.42-3.34,2.52,2.52,0,0,0-.6-3.59,2.81,2.81,0,0,0-3.75.44Z" />
        <path class="cls-6" d="M1453.59,81.94c3.44.44,4-4.62.52-5.06s-4,4.62-.52,5.06Z" />
        <path class="cls-3"
            d="M1673.48,65.36c-1.44-19.54-175.77,41.79-175.77,41.79s-24.52-1.49-40.62,4.74-19.82,23.48-19.82,23.48c9.44-6.76,23.54,9.74,42.33,1.2s23.62-15.88,23.62-15.88S1674.92,84.9,1673.48,65.36Z" />
        <path class="cls-9" d="M1494.6,101.85l5.51,13.54s171.7-35.79,170.26-55.33S1494.6,101.85,1494.6,101.85Z" />
        <path class="cls-14"
            d="M1434.17,130.07s3.71-17.24,19.81-23.47,40.62-4.75,40.62-4.75l5.51,13.54s-4.84,7.36-23.62,15.89S1443.6,123.32,1434.17,130.07Z" />
        <g class="cls-17">
            <path class="cls-16"
                d="M1433.31,132.61c19.28-14.19,41.84-21.26,64.74-28,2.84-.84,1.2-5.38-1.64-4.54-23.25,6.83-46.26,14.11-65.81,28.5-2.36,1.73.34,5.77,2.71,4Z" />
            <path class="cls-16"
                d="M1495.85,106.76a114.23,114.23,0,0,1-28.06,15.2c-8.7,3.15-18,4.38-26.45,8.24-2.65,1.22-1,5.78,1.64,4.55,9.47-4.36,20.14-5.66,29.84-9.54a119.28,119.28,0,0,0,25.74-14.42c2.38-1.72-.33-5.76-2.71-4Z" />
        </g>
        <path class="cls-6"
            d="M1629.42,73.28c-.47.27.59-.23.16-.06l-.52.2c-.4.15-.81.28-1.22.42-1.24.4-2.5.76-3.77,1.11-3.56,1-7.16,1.9-10.75,2.8-7.24,1.8-14.51,3.52-21.78,5.23-3.22.75-1.37,5.8,1.83,5,7.4-1.73,14.8-3.48,22.17-5.33,3.56-.89,7.12-1.79,10.65-2.78a27.66,27.66,0,0,0,6.25-2.15c2.85-1.61-.18-6.08-3-4.49Z" />
        <path class="cls-6" d="M1582.56,90.4c2.6,2.31,5.88-1.58,3.29-3.89s-5.89,1.58-3.29,3.89Z" />
    </g>
</svg>